G04*
G04 #@! TF.GenerationSoftware,Altium Limited,Altium Designer,25.0.2 (28)*
G04*
G04 Layer_Color=8421504*
%FSLAX44Y44*%
%MOMM*%
G71*
G04*
G04 #@! TF.SameCoordinates,16F35CEF-FA67-4110-AEDA-BA59390F761F*
G04*
G04*
G04 #@! TF.FilePolarity,Positive*
G04*
G01*
G75*
%ADD14R,0.4500X0.4500*%
G04:AMPARAMS|DCode=15|XSize=0.55mm|YSize=1.3mm|CornerRadius=0mm|HoleSize=0mm|Usage=FLASHONLY|Rotation=315.000|XOffset=0mm|YOffset=0mm|HoleType=Round|Shape=Round|*
%AMOVALD15*
21,1,0.7500,0.5500,0.0000,0.0000,45.0*
1,1,0.5500,-0.2652,-0.2652*
1,1,0.5500,0.2652,0.2652*
%
%ADD15OVALD15*%

G04:AMPARAMS|DCode=16|XSize=0.55mm|YSize=1.3mm|CornerRadius=0mm|HoleSize=0mm|Usage=FLASHONLY|Rotation=45.000|XOffset=0mm|YOffset=0mm|HoleType=Round|Shape=Round|*
%AMOVALD16*
21,1,0.7500,0.5500,0.0000,0.0000,135.0*
1,1,0.5500,0.2652,-0.2652*
1,1,0.5500,-0.2652,0.2652*
%
%ADD16OVALD16*%

%ADD17P,2.1213X4X85.0*%
%ADD18P,2.1213X4X180.0*%
%ADD19P,2.1213X4X185.0*%
%ADD20P,2.1213X4X160.0*%
%ADD21P,2.1213X4X173.0*%
%ADD22P,2.1213X4X100.0*%
%ADD23P,2.1213X4X170.0*%
%ADD24P,2.1213X4X220.0*%
%ADD25R,1.5000X1.5000*%
%ADD26P,2.1213X4X110.0*%
%ADD27P,2.1213X4X90.0*%
%ADD28P,2.1213X4X97.0*%
%ADD29P,2.1213X4X50.0*%
D14*
X1450580Y863600D02*
D03*
X1458580D02*
D03*
D15*
X1337966Y858134D02*
D03*
X1343623Y852477D02*
D03*
X1349279Y846820D02*
D03*
X1354937Y841163D02*
D03*
X1360593Y835507D02*
D03*
X1366250Y829849D02*
D03*
X1371907Y824193D02*
D03*
X1377564Y818536D02*
D03*
X1318874Y759846D02*
D03*
X1313217Y765503D02*
D03*
X1307560Y771160D02*
D03*
X1301903Y776817D02*
D03*
X1296247Y782473D02*
D03*
X1290590Y788130D02*
D03*
X1284933Y793787D02*
D03*
X1279276Y799444D02*
D03*
D16*
X1377564D02*
D03*
X1371907Y793787D02*
D03*
X1366250Y788130D02*
D03*
X1360593Y782473D02*
D03*
X1354937Y776817D02*
D03*
X1349279Y771160D02*
D03*
X1343623Y765503D02*
D03*
X1337966Y759846D02*
D03*
X1279276Y818536D02*
D03*
X1284933Y824193D02*
D03*
X1290590Y829849D02*
D03*
X1296247Y835507D02*
D03*
X1301903Y841163D02*
D03*
X1307560Y846820D02*
D03*
X1313217Y852477D02*
D03*
X1318874Y858134D02*
D03*
D17*
X1369406Y656249D02*
D03*
X1342594Y633751D02*
D03*
D18*
X1241626Y699374D02*
D03*
X1266374Y674625D02*
D03*
X1286626Y922375D02*
D03*
X1311374Y897626D02*
D03*
D19*
X1286594Y656249D02*
D03*
X1313406Y633751D02*
D03*
D20*
X1174604Y801860D02*
D03*
X1189396Y770140D02*
D03*
D21*
X1203226Y746790D02*
D03*
X1224774Y719210D02*
D03*
D22*
X1197038Y917335D02*
D03*
X1176962Y888665D02*
D03*
D23*
X1458962Y917335D02*
D03*
X1479037Y888665D02*
D03*
D24*
X1222567Y931525D02*
D03*
X1257434Y928475D02*
D03*
D25*
X1169000Y863500D02*
D03*
Y828500D02*
D03*
X1487000Y863500D02*
D03*
Y828500D02*
D03*
D26*
X1481396Y801860D02*
D03*
X1466604Y770140D02*
D03*
D27*
X1414374Y699374D02*
D03*
X1389626Y674625D02*
D03*
X1369375Y922375D02*
D03*
X1344626Y897626D02*
D03*
D28*
X1452774Y746790D02*
D03*
X1431226Y719210D02*
D03*
D29*
X1433433Y931525D02*
D03*
X1398567Y928475D02*
D03*
M02*
