G04*
G04 #@! TF.GenerationSoftware,Altium Limited,Altium Designer,25.0.2 (28)*
G04*
G04 Layer_Color=16711935*
%FSLAX44Y44*%
%MOMM*%
G71*
G04*
G04 #@! TF.SameCoordinates,16F35CEF-FA67-4110-AEDA-BA59390F761F*
G04*
G04*
G04 #@! TF.FilePolarity,Negative*
G04*
G01*
G75*
%ADD30R,0.6532X0.6532*%
%ADD33C,1.0532*%
%ADD34C,5.2032*%
%ADD35C,2.1450*%
%ADD36R,2.1450X2.1450*%
%ADD37C,0.6032*%
%ADD42R,1.0500X1.4000*%
%ADD57R,1.0057X1.3082*%
%ADD58R,1.3032X1.9032*%
%ADD59P,0.9238X4X263.0*%
%ADD60P,0.9238X4X187.0*%
%ADD61P,0.9238X4X293.0*%
%ADD62P,0.9238X4X180.0*%
%ADD63P,0.9238X4X173.0*%
%ADD64P,0.9238X4X160.0*%
%ADD65P,0.9238X4X100.0*%
%ADD66P,0.9238X4X400.0*%
%ADD67P,0.9238X4X270.0*%
%ADD68P,0.9238X4X277.0*%
%ADD69P,0.9238X4X350.0*%
%ADD70P,0.9238X4X50.0*%
%ADD71R,1.4032X1.4032*%
D30*
X1445070Y796290D02*
D03*
X1453070D02*
D03*
X1199070Y863600D02*
D03*
X1191070D02*
D03*
D33*
X1245870Y603000D02*
D03*
X1375410Y590000D02*
D03*
X1315000Y584000D02*
D03*
X1280160Y590000D02*
D03*
X1341840Y584000D02*
D03*
X1409700Y603000D02*
D03*
D34*
X1328420Y975360D02*
D03*
D35*
Y924670D02*
D03*
D36*
Y719770D02*
D03*
D37*
X1289050Y674370D02*
D03*
X1294130Y692150D02*
D03*
X1277366Y733425D02*
D03*
X1254760Y661670D02*
D03*
X1315720Y695960D02*
D03*
X1328420Y617220D02*
D03*
X1408430Y720090D02*
D03*
X1202690Y930910D02*
D03*
X1203960Y891540D02*
D03*
X1146810Y859790D02*
D03*
X1125220Y822960D02*
D03*
X1163320Y815340D02*
D03*
X1290320Y760730D02*
D03*
X1299210Y808980D02*
D03*
X1271270Y805180D02*
D03*
Y812800D02*
D03*
X1350391Y821690D02*
D03*
X1339850Y784860D02*
D03*
X1316990Y875030D02*
D03*
X1314450Y916940D02*
D03*
X1287780Y897890D02*
D03*
X1374140Y905510D02*
D03*
X1442475Y917269D02*
D03*
X1446530Y910590D02*
D03*
X1499870Y801370D02*
D03*
X1496060Y815340D02*
D03*
X1461770Y732790D02*
D03*
X1436370Y693420D02*
D03*
X1417320Y678180D02*
D03*
X1369060Y675640D02*
D03*
X1206500Y765810D02*
D03*
X1243330Y720090D02*
D03*
X1332738Y834865D02*
D03*
X1380236Y832485D02*
D03*
X1342898Y713867D02*
D03*
X1343990Y795864D02*
D03*
X1291590Y844042D02*
D03*
X1373886Y843026D02*
D03*
X1359934Y878278D02*
D03*
X1357376Y817499D02*
D03*
X1337818Y795782D02*
D03*
X1276604Y836676D02*
D03*
X1351026Y868426D02*
D03*
D42*
X1133920Y806670D02*
D03*
Y770670D02*
D03*
X1148420Y806670D02*
D03*
Y770670D02*
D03*
D57*
X1132737Y838000D02*
D03*
X1147263D02*
D03*
Y739000D02*
D03*
X1132737D02*
D03*
D58*
X1243860Y834390D02*
D03*
X1214860D02*
D03*
D59*
X1352537Y676152D02*
D03*
X1357463Y669848D02*
D03*
D60*
X1301463Y676152D02*
D03*
X1296537Y669848D02*
D03*
D61*
X1450291Y814498D02*
D03*
X1457708Y811502D02*
D03*
D62*
X1257828Y715828D02*
D03*
X1252172Y710172D02*
D03*
X1275828Y910828D02*
D03*
X1270172Y905172D02*
D03*
D63*
X1221152Y760463D02*
D03*
X1214848Y755537D02*
D03*
D64*
X1204046Y815209D02*
D03*
X1196795Y811828D02*
D03*
D65*
X1211277Y898706D02*
D03*
X1204724Y903294D02*
D03*
D66*
X1220651Y909015D02*
D03*
X1221349Y916985D02*
D03*
D67*
X1398171Y715828D02*
D03*
X1403828Y710172D02*
D03*
X1386828Y905172D02*
D03*
X1381172Y910828D02*
D03*
D68*
X1434848Y760463D02*
D03*
X1441152Y755537D02*
D03*
D69*
X1444724Y898706D02*
D03*
X1451277Y903294D02*
D03*
D70*
X1435348Y909015D02*
D03*
X1434651Y916985D02*
D03*
D71*
X1516380Y778500D02*
D03*
Y799500D02*
D03*
M02*
