G04*
G04 #@! TF.GenerationSoftware,Altium Limited,Altium Designer,25.0.2 (28)*
G04*
G04 Layer_Color=255*
%FSLAX44Y44*%
%MOMM*%
G71*
G04*
G04 #@! TF.SameCoordinates,16F35CEF-FA67-4110-AEDA-BA59390F761F*
G04*
G04*
G04 #@! TF.FilePolarity,Positive*
G04*
G01*
G75*
%ADD14R,0.4500X0.4500*%
%ADD35C,2.1450*%
%ADD36R,2.1450X2.1450*%
%ADD39C,0.8500*%
%ADD40C,5.0000*%
%ADD42R,1.0500X1.4000*%
%ADD43R,1.1000X1.7000*%
%ADD44P,0.6364X4X263.0*%
%ADD45P,0.6364X4X187.0*%
%ADD46P,0.6364X4X293.0*%
%ADD47P,0.6364X4X180.0*%
%ADD48P,0.6364X4X173.0*%
%ADD49P,0.6364X4X160.0*%
%ADD50P,0.6364X4X100.0*%
%ADD51P,0.6364X4X400.0*%
%ADD52P,0.6364X4X270.0*%
%ADD53P,0.6364X4X277.0*%
%ADD54P,0.6364X4X350.0*%
%ADD55P,0.6364X4X50.0*%
%ADD56R,1.2000X1.2000*%
%ADD57R,1.0057X1.3082*%
D14*
X1445070Y796290D02*
D03*
X1453070D02*
D03*
X1199070Y863600D02*
D03*
X1191070D02*
D03*
D35*
X1328420Y924670D02*
D03*
D36*
Y719770D02*
D03*
D39*
X1245870Y603000D02*
D03*
X1375410Y590000D02*
D03*
X1315000Y584000D02*
D03*
X1280160Y590000D02*
D03*
X1341840Y584000D02*
D03*
X1409700Y603000D02*
D03*
D40*
X1328420Y975360D02*
D03*
D42*
X1133920Y806670D02*
D03*
Y770670D02*
D03*
X1148420Y806670D02*
D03*
Y770670D02*
D03*
D43*
X1243860Y834390D02*
D03*
X1214860D02*
D03*
D44*
X1352537Y676152D02*
D03*
X1357463Y669848D02*
D03*
D45*
X1301463Y676152D02*
D03*
X1296537Y669848D02*
D03*
D46*
X1450291Y814498D02*
D03*
X1457708Y811502D02*
D03*
D47*
X1257828Y715828D02*
D03*
X1252172Y710172D02*
D03*
X1275828Y910828D02*
D03*
X1270172Y905172D02*
D03*
D48*
X1221152Y760463D02*
D03*
X1214848Y755537D02*
D03*
D49*
X1204046Y815209D02*
D03*
X1196795Y811828D02*
D03*
D50*
X1211277Y898706D02*
D03*
X1204724Y903294D02*
D03*
D51*
X1220651Y909015D02*
D03*
X1221349Y916985D02*
D03*
D52*
X1398171Y715828D02*
D03*
X1403828Y710172D02*
D03*
X1386828Y905172D02*
D03*
X1381172Y910828D02*
D03*
D53*
X1434848Y760463D02*
D03*
X1441152Y755537D02*
D03*
D54*
X1444724Y898706D02*
D03*
X1451277Y903294D02*
D03*
D55*
X1435348Y909015D02*
D03*
X1434651Y916985D02*
D03*
D56*
X1516380Y778500D02*
D03*
Y799500D02*
D03*
D57*
X1132737Y838000D02*
D03*
X1147263D02*
D03*
Y739000D02*
D03*
X1132737D02*
D03*
M02*
