G04*
G04 #@! TF.GenerationSoftware,Altium Limited,Altium Designer,25.0.2 (28)*
G04*
G04 Layer_Color=32896*
%FSLAX44Y44*%
%MOMM*%
G71*
G04*
G04 #@! TF.SameCoordinates,16F35CEF-FA67-4110-AEDA-BA59390F761F*
G04*
G04*
G04 #@! TF.FilePolarity,Positive*
G04*
G01*
G75*
%ADD12C,0.2000*%
G36*
X1144456Y805488D02*
X1144299Y805395D01*
X1144151Y805293D01*
X1144004Y805173D01*
X1143874Y805062D01*
X1143763Y804951D01*
X1143671Y804868D01*
X1143643Y804831D01*
X1143615Y804803D01*
X1143606Y804794D01*
X1143597Y804785D01*
X1143439Y804591D01*
X1143292Y804397D01*
X1143162Y804212D01*
X1143060Y804027D01*
X1142968Y803870D01*
X1142931Y803805D01*
X1142903Y803749D01*
X1142876Y803703D01*
X1142866Y803666D01*
X1142848Y803648D01*
Y803638D01*
X1142090D01*
X1142145Y803777D01*
X1142210Y803916D01*
X1142275Y804054D01*
X1142339Y804184D01*
X1142395Y804295D01*
X1142441Y804387D01*
X1142478Y804443D01*
X1142487Y804452D01*
Y804461D01*
X1142589Y804628D01*
X1142691Y804776D01*
X1142783Y804905D01*
X1142866Y805007D01*
X1142931Y805099D01*
X1142987Y805155D01*
X1143023Y805201D01*
X1143033Y805210D01*
X1138031D01*
Y805996D01*
X1144456D01*
Y805488D01*
D02*
G37*
G36*
X1144429Y801706D02*
X1140314Y800708D01*
X1140028Y800634D01*
X1139769Y800578D01*
X1139529Y800523D01*
X1139325Y800477D01*
X1139233Y800449D01*
X1139149Y800440D01*
X1139085Y800421D01*
X1139029Y800412D01*
X1138983Y800393D01*
X1138946D01*
X1138928Y800384D01*
X1138918D01*
X1139325Y800319D01*
X1139723Y800236D01*
X1140102Y800153D01*
X1140277Y800116D01*
X1140453Y800070D01*
X1140610Y800033D01*
X1140749Y799996D01*
X1140869Y799959D01*
X1140980Y799931D01*
X1141063Y799912D01*
X1141128Y799894D01*
X1141174Y799875D01*
X1141184D01*
X1144429Y798969D01*
Y797943D01*
X1140102Y796732D01*
X1140065Y796723D01*
X1140009Y796704D01*
X1139935Y796686D01*
X1139852Y796667D01*
X1139760Y796639D01*
X1139658Y796621D01*
X1139455Y796566D01*
X1139251Y796519D01*
X1139159Y796492D01*
X1139085Y796473D01*
X1139011Y796464D01*
X1138965Y796445D01*
X1138928Y796436D01*
X1138918D01*
X1139159Y796390D01*
X1139399Y796344D01*
X1139621Y796297D01*
X1139815Y796251D01*
X1139908Y796233D01*
X1139991Y796214D01*
X1140056Y796196D01*
X1140120Y796187D01*
X1140167Y796177D01*
X1140203Y796168D01*
X1140222Y796159D01*
X1140231D01*
X1144429Y795207D01*
Y794328D01*
X1138031Y796002D01*
Y796889D01*
X1142903Y798239D01*
X1143023Y798276D01*
X1143153Y798304D01*
X1143282Y798341D01*
X1143393Y798369D01*
X1143495Y798396D01*
X1143578Y798415D01*
X1143634Y798424D01*
X1143643Y798433D01*
X1143652D01*
X1143624Y798442D01*
X1143578Y798452D01*
X1143476Y798479D01*
X1143356Y798516D01*
X1143227Y798553D01*
X1143107Y798581D01*
X1143005Y798609D01*
X1142959Y798618D01*
X1142931Y798627D01*
X1142913Y798637D01*
X1142903D01*
X1138031Y799977D01*
Y800809D01*
X1144429Y802566D01*
Y801706D01*
D02*
G37*
G36*
X1140009Y793746D02*
X1140185Y793718D01*
X1140342Y793672D01*
X1140472Y793625D01*
X1140583Y793570D01*
X1140666Y793533D01*
X1140712Y793496D01*
X1140731Y793487D01*
X1140869Y793376D01*
X1140999Y793246D01*
X1141110Y793108D01*
X1141211Y792969D01*
X1141285Y792849D01*
X1141341Y792747D01*
X1141359Y792710D01*
X1141378Y792682D01*
X1141387Y792664D01*
Y792655D01*
X1141424Y792581D01*
X1141452Y792488D01*
X1141489Y792387D01*
X1141526Y792276D01*
X1141590Y792045D01*
X1141655Y791804D01*
X1141683Y791693D01*
X1141711Y791591D01*
X1141738Y791490D01*
X1141757Y791406D01*
X1141775Y791342D01*
X1141785Y791286D01*
X1141794Y791249D01*
Y791240D01*
X1141840Y791055D01*
X1141877Y790889D01*
X1141923Y790741D01*
X1141960Y790611D01*
X1142006Y790491D01*
X1142043Y790389D01*
X1142080Y790297D01*
X1142108Y790214D01*
X1142145Y790149D01*
X1142173Y790094D01*
X1142191Y790057D01*
X1142219Y790020D01*
X1142247Y789974D01*
X1142256Y789964D01*
X1142348Y789881D01*
X1142441Y789826D01*
X1142533Y789779D01*
X1142626Y789752D01*
X1142700Y789733D01*
X1142765Y789724D01*
X1142802D01*
X1142820D01*
X1142968Y789742D01*
X1143097Y789779D01*
X1143208Y789835D01*
X1143310Y789900D01*
X1143384Y789955D01*
X1143449Y790010D01*
X1143486Y790047D01*
X1143495Y790066D01*
X1143541Y790140D01*
X1143587Y790214D01*
X1143661Y790389D01*
X1143708Y790574D01*
X1143745Y790759D01*
X1143763Y790926D01*
X1143772Y791000D01*
X1143782Y791055D01*
Y791185D01*
X1143772Y791443D01*
X1143735Y791675D01*
X1143680Y791860D01*
X1143624Y792017D01*
X1143569Y792137D01*
X1143513Y792229D01*
X1143476Y792276D01*
X1143467Y792294D01*
X1143338Y792423D01*
X1143199Y792525D01*
X1143051Y792608D01*
X1142903Y792664D01*
X1142765Y792701D01*
X1142663Y792729D01*
X1142617Y792738D01*
X1142589Y792747D01*
X1142570D01*
X1142561D01*
X1142626Y793561D01*
X1142829Y793542D01*
X1143014Y793496D01*
X1143190Y793450D01*
X1143338Y793385D01*
X1143458Y793330D01*
X1143550Y793283D01*
X1143578Y793265D01*
X1143606Y793246D01*
X1143615Y793237D01*
X1143624D01*
X1143782Y793117D01*
X1143920Y792988D01*
X1144041Y792849D01*
X1144133Y792710D01*
X1144216Y792590D01*
X1144262Y792497D01*
X1144281Y792460D01*
X1144299Y792433D01*
X1144309Y792414D01*
Y792405D01*
X1144382Y792202D01*
X1144438Y791980D01*
X1144484Y791776D01*
X1144512Y791582D01*
X1144530Y791406D01*
Y791342D01*
X1144540Y791277D01*
Y791157D01*
X1144530Y790917D01*
X1144503Y790704D01*
X1144466Y790500D01*
X1144429Y790325D01*
X1144392Y790186D01*
X1144373Y790121D01*
X1144355Y790075D01*
X1144336Y790038D01*
X1144327Y790010D01*
X1144318Y789992D01*
Y789983D01*
X1144225Y789798D01*
X1144124Y789631D01*
X1144013Y789493D01*
X1143911Y789382D01*
X1143819Y789298D01*
X1143745Y789234D01*
X1143689Y789188D01*
X1143680Y789178D01*
X1143671D01*
X1143513Y789086D01*
X1143356Y789021D01*
X1143199Y788975D01*
X1143060Y788947D01*
X1142940Y788929D01*
X1142848Y788910D01*
X1142811D01*
X1142783D01*
X1142774D01*
X1142765D01*
X1142607Y788920D01*
X1142459Y788947D01*
X1142321Y788984D01*
X1142201Y789021D01*
X1142108Y789058D01*
X1142034Y789095D01*
X1141988Y789123D01*
X1141969Y789132D01*
X1141840Y789225D01*
X1141720Y789335D01*
X1141618Y789446D01*
X1141535Y789557D01*
X1141461Y789650D01*
X1141415Y789733D01*
X1141378Y789789D01*
X1141368Y789798D01*
Y789807D01*
X1141331Y789881D01*
X1141294Y789964D01*
X1141230Y790149D01*
X1141165Y790362D01*
X1141100Y790565D01*
X1141045Y790750D01*
X1141026Y790833D01*
X1141008Y790907D01*
X1140989Y790963D01*
X1140980Y791009D01*
X1140971Y791037D01*
Y791046D01*
X1140934Y791203D01*
X1140897Y791351D01*
X1140860Y791480D01*
X1140832Y791591D01*
X1140805Y791702D01*
X1140777Y791795D01*
X1140758Y791878D01*
X1140731Y791943D01*
X1140712Y792008D01*
X1140703Y792054D01*
X1140675Y792128D01*
X1140666Y792174D01*
X1140657Y792183D01*
X1140601Y792322D01*
X1140536Y792442D01*
X1140472Y792544D01*
X1140416Y792618D01*
X1140361Y792682D01*
X1140324Y792719D01*
X1140296Y792747D01*
X1140287Y792756D01*
X1140203Y792821D01*
X1140111Y792867D01*
X1140019Y792895D01*
X1139945Y792923D01*
X1139871Y792932D01*
X1139815Y792941D01*
X1139769D01*
X1139760D01*
X1139649Y792932D01*
X1139547Y792914D01*
X1139455Y792886D01*
X1139381Y792849D01*
X1139307Y792812D01*
X1139260Y792784D01*
X1139223Y792766D01*
X1139214Y792756D01*
X1139122Y792682D01*
X1139048Y792590D01*
X1138983Y792497D01*
X1138918Y792414D01*
X1138881Y792331D01*
X1138844Y792266D01*
X1138826Y792220D01*
X1138817Y792202D01*
X1138771Y792063D01*
X1138734Y791915D01*
X1138715Y791767D01*
X1138697Y791638D01*
X1138687Y791527D01*
X1138678Y791434D01*
Y791351D01*
X1138687Y791148D01*
X1138706Y790963D01*
X1138734Y790796D01*
X1138771Y790648D01*
X1138808Y790528D01*
X1138835Y790436D01*
X1138844Y790408D01*
X1138854Y790380D01*
X1138863Y790371D01*
Y790362D01*
X1138937Y790214D01*
X1139020Y790075D01*
X1139103Y789974D01*
X1139186Y789881D01*
X1139251Y789807D01*
X1139316Y789761D01*
X1139353Y789733D01*
X1139362Y789724D01*
X1139482Y789659D01*
X1139612Y789594D01*
X1139751Y789557D01*
X1139871Y789520D01*
X1139991Y789493D01*
X1140074Y789474D01*
X1140111D01*
X1140139Y789465D01*
X1140148D01*
X1140157D01*
X1140083Y788670D01*
X1139852Y788688D01*
X1139630Y788725D01*
X1139436Y788781D01*
X1139260Y788846D01*
X1139122Y788910D01*
X1139066Y788938D01*
X1139020Y788956D01*
X1138983Y788984D01*
X1138955Y788993D01*
X1138937Y789012D01*
X1138928D01*
X1138752Y789151D01*
X1138595Y789298D01*
X1138465Y789456D01*
X1138354Y789604D01*
X1138271Y789733D01*
X1138216Y789844D01*
X1138197Y789881D01*
X1138179Y789909D01*
X1138169Y789927D01*
Y789937D01*
X1138086Y790168D01*
X1138022Y790408D01*
X1137985Y790648D01*
X1137948Y790880D01*
X1137938Y790991D01*
X1137929Y791083D01*
Y791166D01*
X1137920Y791240D01*
Y791388D01*
X1137929Y791638D01*
X1137957Y791869D01*
X1138003Y792081D01*
X1138049Y792257D01*
X1138086Y792405D01*
X1138114Y792470D01*
X1138132Y792525D01*
X1138151Y792562D01*
X1138160Y792590D01*
X1138169Y792608D01*
Y792618D01*
X1138271Y792812D01*
X1138382Y792978D01*
X1138502Y793126D01*
X1138613Y793246D01*
X1138706Y793339D01*
X1138789Y793404D01*
X1138844Y793450D01*
X1138854Y793459D01*
X1138863D01*
X1139039Y793561D01*
X1139205Y793635D01*
X1139362Y793681D01*
X1139510Y793718D01*
X1139640Y793736D01*
X1139741Y793755D01*
X1139778D01*
X1139806D01*
X1139815D01*
X1139825D01*
X1140009Y793746D01*
D02*
G37*
G36*
X1131263Y844379D02*
X1131365Y844231D01*
X1131485Y844083D01*
X1131596Y843954D01*
X1131707Y843843D01*
X1131790Y843751D01*
X1131827Y843723D01*
X1131855Y843695D01*
X1131864Y843686D01*
X1131873Y843677D01*
X1132067Y843520D01*
X1132262Y843372D01*
X1132447Y843242D01*
X1132631Y843140D01*
X1132789Y843048D01*
X1132853Y843011D01*
X1132909Y842983D01*
X1132955Y842955D01*
X1132992Y842946D01*
X1133010Y842928D01*
X1133020D01*
Y842170D01*
X1132881Y842225D01*
X1132742Y842290D01*
X1132604Y842355D01*
X1132474Y842419D01*
X1132363Y842475D01*
X1132271Y842521D01*
X1132215Y842558D01*
X1132206Y842567D01*
X1132197D01*
X1132030Y842669D01*
X1131882Y842771D01*
X1131753Y842863D01*
X1131651Y842946D01*
X1131559Y843011D01*
X1131503Y843066D01*
X1131457Y843103D01*
X1131448Y843113D01*
Y838111D01*
X1130662D01*
Y844537D01*
X1131171D01*
X1131263Y844379D01*
D02*
G37*
G36*
X1137291Y844601D02*
X1137587Y844555D01*
X1137846Y844500D01*
X1137966Y844463D01*
X1138077Y844426D01*
X1138179Y844389D01*
X1138271Y844352D01*
X1138345Y844324D01*
X1138419Y844296D01*
X1138465Y844268D01*
X1138502Y844250D01*
X1138530Y844241D01*
X1138539Y844231D01*
X1138789Y844074D01*
X1139002Y843889D01*
X1139186Y843704D01*
X1139344Y843520D01*
X1139464Y843353D01*
X1139510Y843279D01*
X1139547Y843214D01*
X1139584Y843168D01*
X1139603Y843131D01*
X1139612Y843103D01*
X1139621Y843094D01*
X1139751Y842808D01*
X1139843Y842512D01*
X1139908Y842216D01*
X1139954Y841948D01*
X1139972Y841828D01*
X1139982Y841707D01*
X1139991Y841615D01*
Y841522D01*
X1140000Y841458D01*
Y841402D01*
Y841365D01*
Y841356D01*
X1139982Y841023D01*
X1139945Y840700D01*
X1139898Y840413D01*
X1139861Y840274D01*
X1139834Y840154D01*
X1139806Y840043D01*
X1139769Y839941D01*
X1139741Y839849D01*
X1139723Y839775D01*
X1139695Y839720D01*
X1139686Y839673D01*
X1139667Y839646D01*
Y839636D01*
X1139529Y839359D01*
X1139371Y839109D01*
X1139205Y838897D01*
X1139122Y838813D01*
X1139048Y838730D01*
X1138974Y838656D01*
X1138900Y838592D01*
X1138835Y838536D01*
X1138780Y838499D01*
X1138743Y838462D01*
X1138706Y838434D01*
X1138687Y838425D01*
X1138678Y838416D01*
X1138549Y838342D01*
X1138419Y838277D01*
X1138142Y838176D01*
X1137864Y838102D01*
X1137596Y838055D01*
X1137467Y838037D01*
X1137356Y838018D01*
X1137254Y838009D01*
X1137171D01*
X1137097Y838000D01*
X1136995D01*
X1136810Y838009D01*
X1136635Y838028D01*
X1136468Y838046D01*
X1136311Y838083D01*
X1136163Y838129D01*
X1136024Y838176D01*
X1135895Y838222D01*
X1135775Y838277D01*
X1135673Y838324D01*
X1135572Y838370D01*
X1135498Y838416D01*
X1135424Y838462D01*
X1135377Y838499D01*
X1135331Y838518D01*
X1135313Y838536D01*
X1135303Y838545D01*
X1135174Y838656D01*
X1135063Y838767D01*
X1134961Y838897D01*
X1134860Y839026D01*
X1134693Y839285D01*
X1134564Y839544D01*
X1134508Y839664D01*
X1134462Y839775D01*
X1134425Y839877D01*
X1134397Y839960D01*
X1134370Y840034D01*
X1134351Y840089D01*
X1134342Y840126D01*
Y840136D01*
X1135192Y840348D01*
X1135229Y840200D01*
X1135276Y840062D01*
X1135322Y839932D01*
X1135368Y839812D01*
X1135424Y839701D01*
X1135479Y839609D01*
X1135544Y839516D01*
X1135599Y839433D01*
X1135646Y839359D01*
X1135701Y839304D01*
X1135747Y839248D01*
X1135784Y839202D01*
X1135821Y839174D01*
X1135849Y839146D01*
X1135858Y839137D01*
X1135867Y839128D01*
X1135960Y839054D01*
X1136061Y838998D01*
X1136265Y838897D01*
X1136459Y838823D01*
X1136653Y838776D01*
X1136820Y838739D01*
X1136884Y838730D01*
X1136949D01*
X1137005Y838721D01*
X1137069D01*
X1137282Y838730D01*
X1137485Y838767D01*
X1137670Y838813D01*
X1137837Y838869D01*
X1137966Y838924D01*
X1138022Y838952D01*
X1138068Y838971D01*
X1138105Y838989D01*
X1138132Y839008D01*
X1138151Y839017D01*
X1138160D01*
X1138336Y839146D01*
X1138484Y839285D01*
X1138613Y839442D01*
X1138715Y839590D01*
X1138798Y839720D01*
X1138854Y839830D01*
X1138872Y839877D01*
X1138891Y839904D01*
X1138900Y839923D01*
Y839932D01*
X1138974Y840173D01*
X1139029Y840413D01*
X1139076Y840653D01*
X1139103Y840875D01*
X1139113Y840977D01*
X1139122Y841069D01*
Y841153D01*
X1139131Y841217D01*
Y841273D01*
Y841319D01*
Y841347D01*
Y841356D01*
X1139122Y841596D01*
X1139103Y841818D01*
X1139066Y842022D01*
X1139029Y842207D01*
X1139002Y842364D01*
X1138983Y842429D01*
X1138965Y842484D01*
X1138955Y842530D01*
X1138946Y842558D01*
X1138937Y842576D01*
Y842586D01*
X1138844Y842798D01*
X1138743Y842992D01*
X1138632Y843150D01*
X1138512Y843288D01*
X1138410Y843399D01*
X1138327Y843473D01*
X1138262Y843520D01*
X1138253Y843538D01*
X1138243D01*
X1138049Y843658D01*
X1137837Y843751D01*
X1137633Y843815D01*
X1137439Y843852D01*
X1137263Y843880D01*
X1137189Y843889D01*
X1137125D01*
X1137078Y843899D01*
X1137005D01*
X1136773Y843889D01*
X1136561Y843852D01*
X1136385Y843797D01*
X1136228Y843741D01*
X1136108Y843677D01*
X1136015Y843630D01*
X1135960Y843594D01*
X1135941Y843575D01*
X1135793Y843436D01*
X1135655Y843279D01*
X1135544Y843113D01*
X1135451Y842946D01*
X1135377Y842798D01*
X1135350Y842724D01*
X1135331Y842669D01*
X1135313Y842623D01*
X1135294Y842586D01*
X1135285Y842567D01*
Y842558D01*
X1134453Y842752D01*
X1134508Y842918D01*
X1134564Y843066D01*
X1134638Y843205D01*
X1134702Y843344D01*
X1134776Y843464D01*
X1134860Y843575D01*
X1134933Y843686D01*
X1135007Y843778D01*
X1135081Y843852D01*
X1135146Y843926D01*
X1135211Y843991D01*
X1135257Y844037D01*
X1135303Y844083D01*
X1135340Y844111D01*
X1135359Y844120D01*
X1135368Y844130D01*
X1135498Y844213D01*
X1135627Y844296D01*
X1135756Y844361D01*
X1135895Y844416D01*
X1136172Y844500D01*
X1136422Y844555D01*
X1136542Y844583D01*
X1136644Y844592D01*
X1136746Y844601D01*
X1136829Y844611D01*
X1136894Y844620D01*
X1136986D01*
X1137291Y844601D01*
D02*
G37*
G36*
X1143190Y738991D02*
X1143365Y738972D01*
X1143532Y738954D01*
X1143689Y738917D01*
X1143837Y738871D01*
X1143975Y738824D01*
X1144105Y738778D01*
X1144225Y738723D01*
X1144327Y738677D01*
X1144428Y738630D01*
X1144502Y738584D01*
X1144576Y738538D01*
X1144623Y738501D01*
X1144669Y738482D01*
X1144687Y738464D01*
X1144697Y738455D01*
X1144826Y738344D01*
X1144937Y738233D01*
X1145039Y738103D01*
X1145140Y737974D01*
X1145307Y737715D01*
X1145436Y737456D01*
X1145492Y737336D01*
X1145538Y737225D01*
X1145575Y737123D01*
X1145603Y737040D01*
X1145630Y736966D01*
X1145649Y736911D01*
X1145658Y736874D01*
Y736864D01*
X1144808Y736652D01*
X1144771Y736800D01*
X1144724Y736938D01*
X1144678Y737068D01*
X1144632Y737188D01*
X1144576Y737299D01*
X1144521Y737391D01*
X1144456Y737484D01*
X1144401Y737567D01*
X1144354Y737641D01*
X1144299Y737696D01*
X1144253Y737752D01*
X1144216Y737798D01*
X1144179Y737826D01*
X1144151Y737854D01*
X1144142Y737863D01*
X1144133Y737872D01*
X1144040Y737946D01*
X1143939Y738001D01*
X1143735Y738103D01*
X1143541Y738177D01*
X1143347Y738223D01*
X1143180Y738260D01*
X1143116Y738270D01*
X1143051D01*
X1142995Y738279D01*
X1142931D01*
X1142718Y738270D01*
X1142515Y738233D01*
X1142330Y738186D01*
X1142163Y738131D01*
X1142034Y738075D01*
X1141978Y738048D01*
X1141932Y738029D01*
X1141895Y738011D01*
X1141867Y737992D01*
X1141849Y737983D01*
X1141840D01*
X1141664Y737854D01*
X1141516Y737715D01*
X1141387Y737558D01*
X1141285Y737410D01*
X1141202Y737280D01*
X1141146Y737169D01*
X1141128Y737123D01*
X1141109Y737095D01*
X1141100Y737077D01*
Y737068D01*
X1141026Y736827D01*
X1140971Y736587D01*
X1140924Y736347D01*
X1140897Y736125D01*
X1140887Y736023D01*
X1140878Y735930D01*
Y735847D01*
X1140869Y735783D01*
Y735727D01*
Y735681D01*
Y735653D01*
Y735644D01*
X1140878Y735404D01*
X1140897Y735182D01*
X1140934Y734978D01*
X1140971Y734793D01*
X1140998Y734636D01*
X1141017Y734571D01*
X1141035Y734516D01*
X1141045Y734470D01*
X1141054Y734442D01*
X1141063Y734424D01*
Y734414D01*
X1141155Y734202D01*
X1141257Y734007D01*
X1141368Y733850D01*
X1141488Y733712D01*
X1141590Y733601D01*
X1141673Y733527D01*
X1141738Y733480D01*
X1141747Y733462D01*
X1141757D01*
X1141951Y733342D01*
X1142163Y733249D01*
X1142367Y733185D01*
X1142561Y733148D01*
X1142737Y733120D01*
X1142811Y733111D01*
X1142875D01*
X1142921Y733101D01*
X1142995D01*
X1143226Y733111D01*
X1143439Y733148D01*
X1143615Y733203D01*
X1143772Y733259D01*
X1143892Y733323D01*
X1143985Y733370D01*
X1144040Y733407D01*
X1144059Y733425D01*
X1144207Y733564D01*
X1144345Y733721D01*
X1144456Y733887D01*
X1144549Y734054D01*
X1144623Y734202D01*
X1144650Y734276D01*
X1144669Y734331D01*
X1144687Y734377D01*
X1144706Y734414D01*
X1144715Y734433D01*
Y734442D01*
X1145547Y734248D01*
X1145492Y734081D01*
X1145436Y733933D01*
X1145362Y733795D01*
X1145298Y733656D01*
X1145224Y733536D01*
X1145140Y733425D01*
X1145066Y733314D01*
X1144993Y733222D01*
X1144919Y733148D01*
X1144854Y733074D01*
X1144789Y733009D01*
X1144743Y732963D01*
X1144697Y732916D01*
X1144660Y732889D01*
X1144641Y732879D01*
X1144632Y732870D01*
X1144502Y732787D01*
X1144373Y732704D01*
X1144244Y732639D01*
X1144105Y732584D01*
X1143828Y732500D01*
X1143578Y732445D01*
X1143458Y732417D01*
X1143356Y732408D01*
X1143254Y732399D01*
X1143171Y732390D01*
X1143106Y732380D01*
X1143014D01*
X1142709Y732399D01*
X1142413Y732445D01*
X1142154Y732500D01*
X1142034Y732537D01*
X1141923Y732574D01*
X1141821Y732611D01*
X1141729Y732648D01*
X1141655Y732676D01*
X1141581Y732704D01*
X1141535Y732732D01*
X1141498Y732750D01*
X1141470Y732759D01*
X1141461Y732768D01*
X1141211Y732926D01*
X1140998Y733111D01*
X1140813Y733296D01*
X1140656Y733480D01*
X1140536Y733647D01*
X1140490Y733721D01*
X1140453Y733786D01*
X1140416Y733832D01*
X1140397Y733869D01*
X1140388Y733896D01*
X1140379Y733906D01*
X1140249Y734192D01*
X1140157Y734488D01*
X1140092Y734784D01*
X1140046Y735052D01*
X1140028Y735172D01*
X1140018Y735293D01*
X1140009Y735385D01*
Y735478D01*
X1140000Y735542D01*
Y735598D01*
Y735635D01*
Y735644D01*
X1140018Y735977D01*
X1140055Y736300D01*
X1140101Y736587D01*
X1140138Y736726D01*
X1140166Y736846D01*
X1140194Y736957D01*
X1140231Y737058D01*
X1140259Y737151D01*
X1140277Y737225D01*
X1140305Y737280D01*
X1140314Y737327D01*
X1140333Y737354D01*
Y737364D01*
X1140471Y737641D01*
X1140629Y737891D01*
X1140795Y738103D01*
X1140878Y738186D01*
X1140952Y738270D01*
X1141026Y738344D01*
X1141100Y738408D01*
X1141165Y738464D01*
X1141220Y738501D01*
X1141257Y738538D01*
X1141294Y738566D01*
X1141313Y738575D01*
X1141322Y738584D01*
X1141451Y738658D01*
X1141581Y738723D01*
X1141858Y738824D01*
X1142136Y738898D01*
X1142404Y738945D01*
X1142533Y738963D01*
X1142644Y738982D01*
X1142746Y738991D01*
X1142829D01*
X1142903Y739000D01*
X1143005D01*
X1143190Y738991D01*
D02*
G37*
G36*
X1150512Y738131D02*
X1147359D01*
X1147470Y737974D01*
X1147526Y737909D01*
X1147572Y737844D01*
X1147618Y737789D01*
X1147655Y737752D01*
X1147683Y737724D01*
X1147692Y737715D01*
X1147738Y737669D01*
X1147794Y737623D01*
X1147923Y737502D01*
X1148071Y737364D01*
X1148228Y737225D01*
X1148376Y737105D01*
X1148441Y737049D01*
X1148496Y736994D01*
X1148543Y736957D01*
X1148580Y736929D01*
X1148598Y736911D01*
X1148607Y736901D01*
X1148755Y736772D01*
X1148903Y736652D01*
X1149033Y736532D01*
X1149153Y736430D01*
X1149264Y736328D01*
X1149356Y736236D01*
X1149449Y736152D01*
X1149523Y736078D01*
X1149597Y736004D01*
X1149652Y735949D01*
X1149698Y735903D01*
X1149745Y735857D01*
X1149791Y735801D01*
X1149809Y735783D01*
X1149939Y735625D01*
X1150050Y735487D01*
X1150142Y735348D01*
X1150216Y735237D01*
X1150272Y735135D01*
X1150309Y735061D01*
X1150327Y735015D01*
X1150336Y734997D01*
X1150392Y734858D01*
X1150429Y734719D01*
X1150466Y734590D01*
X1150484Y734479D01*
X1150494Y734377D01*
X1150503Y734303D01*
Y734257D01*
Y734239D01*
X1150494Y734100D01*
X1150475Y733970D01*
X1150457Y733841D01*
X1150420Y733730D01*
X1150327Y733508D01*
X1150235Y733333D01*
X1150179Y733249D01*
X1150133Y733185D01*
X1150087Y733120D01*
X1150041Y733074D01*
X1150004Y733037D01*
X1149985Y733000D01*
X1149967Y732990D01*
X1149957Y732981D01*
X1149856Y732889D01*
X1149745Y732805D01*
X1149624Y732741D01*
X1149504Y732685D01*
X1149264Y732593D01*
X1149024Y732528D01*
X1148922Y732510D01*
X1148820Y732491D01*
X1148728Y732482D01*
X1148654Y732473D01*
X1148589Y732463D01*
X1148496D01*
X1148330Y732473D01*
X1148173Y732482D01*
X1148025Y732510D01*
X1147886Y732537D01*
X1147757Y732574D01*
X1147637Y732611D01*
X1147526Y732658D01*
X1147424Y732704D01*
X1147332Y732750D01*
X1147258Y732796D01*
X1147193Y732833D01*
X1147137Y732870D01*
X1147091Y732898D01*
X1147064Y732926D01*
X1147045Y732935D01*
X1147036Y732944D01*
X1146943Y733037D01*
X1146860Y733138D01*
X1146777Y733249D01*
X1146712Y733360D01*
X1146601Y733582D01*
X1146527Y733804D01*
X1146499Y733906D01*
X1146472Y734007D01*
X1146453Y734091D01*
X1146435Y734165D01*
X1146425Y734229D01*
Y734276D01*
X1146416Y734303D01*
Y734313D01*
X1147221Y734396D01*
X1147239Y734183D01*
X1147276Y733998D01*
X1147332Y733832D01*
X1147396Y733702D01*
X1147452Y733591D01*
X1147507Y733517D01*
X1147544Y733471D01*
X1147563Y733453D01*
X1147701Y733342D01*
X1147849Y733259D01*
X1148007Y733194D01*
X1148145Y733157D01*
X1148275Y733129D01*
X1148386Y733120D01*
X1148423Y733111D01*
X1148478D01*
X1148672Y733120D01*
X1148848Y733157D01*
X1148996Y733212D01*
X1149125Y733268D01*
X1149227Y733333D01*
X1149292Y733379D01*
X1149338Y733416D01*
X1149356Y733434D01*
X1149467Y733564D01*
X1149550Y733693D01*
X1149615Y733822D01*
X1149652Y733952D01*
X1149680Y734054D01*
X1149689Y734146D01*
X1149698Y734202D01*
Y734211D01*
Y734220D01*
X1149680Y734387D01*
X1149643Y734562D01*
X1149578Y734719D01*
X1149514Y734867D01*
X1149440Y734987D01*
X1149375Y735089D01*
X1149356Y735126D01*
X1149338Y735154D01*
X1149319Y735163D01*
Y735172D01*
X1149245Y735274D01*
X1149153Y735376D01*
X1149051Y735487D01*
X1148940Y735598D01*
X1148709Y735820D01*
X1148478Y736041D01*
X1148358Y736143D01*
X1148256Y736236D01*
X1148154Y736319D01*
X1148071Y736393D01*
X1148007Y736448D01*
X1147951Y736495D01*
X1147914Y736522D01*
X1147905Y736532D01*
X1147674Y736726D01*
X1147461Y736911D01*
X1147285Y737077D01*
X1147147Y737216D01*
X1147027Y737336D01*
X1146943Y737419D01*
X1146897Y737475D01*
X1146879Y737484D01*
Y737493D01*
X1146749Y737650D01*
X1146647Y737798D01*
X1146555Y737946D01*
X1146481Y738075D01*
X1146425Y738186D01*
X1146388Y738270D01*
X1146370Y738325D01*
X1146361Y738334D01*
Y738344D01*
X1146324Y738445D01*
X1146305Y738538D01*
X1146287Y738630D01*
X1146278Y738714D01*
X1146268Y738787D01*
Y738843D01*
Y738880D01*
Y738889D01*
X1150512D01*
Y738131D01*
D02*
G37*
G36*
X1334846Y802261D02*
X1334688Y802168D01*
X1334541Y802067D01*
X1334393Y801946D01*
X1334263Y801836D01*
X1334152Y801725D01*
X1334060Y801641D01*
X1334032Y801604D01*
X1334004Y801577D01*
X1333995Y801567D01*
X1333986Y801558D01*
X1333828Y801364D01*
X1333681Y801170D01*
X1333551Y800985D01*
X1333450Y800800D01*
X1333357Y800643D01*
X1333320Y800578D01*
X1333292Y800523D01*
X1333265Y800477D01*
X1333255Y800440D01*
X1333237Y800421D01*
Y800412D01*
X1332479D01*
X1332534Y800550D01*
X1332599Y800689D01*
X1332664Y800828D01*
X1332728Y800957D01*
X1332784Y801068D01*
X1332830Y801161D01*
X1332867Y801216D01*
X1332876Y801225D01*
Y801235D01*
X1332978Y801401D01*
X1333080Y801549D01*
X1333172Y801678D01*
X1333255Y801780D01*
X1333320Y801872D01*
X1333376Y801928D01*
X1333412Y801974D01*
X1333422Y801983D01*
X1328420D01*
Y802769D01*
X1334846D01*
Y802261D01*
D02*
G37*
G36*
X1334818Y794189D02*
X1334060D01*
Y796297D01*
X1328420D01*
Y797148D01*
X1334060D01*
Y799256D01*
X1334818D01*
Y794189D01*
D02*
G37*
G36*
X1330482Y793496D02*
X1330667Y793459D01*
X1330824Y793404D01*
X1330972Y793348D01*
X1331083Y793293D01*
X1331166Y793237D01*
X1331221Y793200D01*
X1331240Y793191D01*
X1331388Y793062D01*
X1331508Y792923D01*
X1331610Y792766D01*
X1331693Y792627D01*
X1331758Y792497D01*
X1331794Y792387D01*
X1331813Y792350D01*
X1331822Y792322D01*
X1331832Y792303D01*
Y792294D01*
X1331924Y792451D01*
X1332016Y792590D01*
X1332118Y792701D01*
X1332211Y792793D01*
X1332285Y792867D01*
X1332359Y792923D01*
X1332395Y792951D01*
X1332414Y792960D01*
X1332553Y793034D01*
X1332682Y793089D01*
X1332811Y793135D01*
X1332932Y793163D01*
X1333033Y793182D01*
X1333117Y793191D01*
X1333163D01*
X1333181D01*
X1333338Y793182D01*
X1333496Y793154D01*
X1333634Y793108D01*
X1333764Y793062D01*
X1333875Y793015D01*
X1333949Y792969D01*
X1334004Y792941D01*
X1334023Y792932D01*
X1334161Y792830D01*
X1334291Y792719D01*
X1334393Y792599D01*
X1334476Y792488D01*
X1334541Y792396D01*
X1334587Y792313D01*
X1334614Y792257D01*
X1334624Y792248D01*
Y792239D01*
X1334688Y792063D01*
X1334735Y791869D01*
X1334772Y791675D01*
X1334790Y791490D01*
X1334809Y791323D01*
Y791249D01*
X1334818Y791185D01*
Y788670D01*
X1328420D01*
Y791111D01*
X1328429Y791333D01*
X1328438Y791527D01*
X1328457Y791702D01*
X1328475Y791850D01*
X1328494Y791971D01*
X1328503Y792063D01*
X1328522Y792118D01*
Y792137D01*
X1328568Y792294D01*
X1328614Y792423D01*
X1328669Y792544D01*
X1328725Y792645D01*
X1328762Y792729D01*
X1328799Y792793D01*
X1328827Y792830D01*
X1328836Y792840D01*
X1328919Y792941D01*
X1329021Y793034D01*
X1329122Y793108D01*
X1329215Y793182D01*
X1329308Y793237D01*
X1329372Y793274D01*
X1329418Y793302D01*
X1329437Y793311D01*
X1329585Y793376D01*
X1329733Y793422D01*
X1329871Y793459D01*
X1330001Y793477D01*
X1330112Y793496D01*
X1330204Y793505D01*
X1330260D01*
X1330269D01*
X1330278D01*
X1330482Y793496D01*
D02*
G37*
%LPC*%
G36*
X1333135Y792359D02*
X1333098D01*
X1333080D01*
X1332959Y792350D01*
X1332849Y792331D01*
X1332756Y792303D01*
X1332682Y792276D01*
X1332617Y792248D01*
X1332562Y792220D01*
X1332534Y792202D01*
X1332525Y792192D01*
X1332451Y792128D01*
X1332377Y792045D01*
X1332321Y791961D01*
X1332285Y791887D01*
X1332248Y791813D01*
X1332220Y791758D01*
X1332211Y791721D01*
X1332201Y791702D01*
X1332183Y791601D01*
X1332164Y791471D01*
X1332155Y791342D01*
X1332146Y791212D01*
X1332137Y791092D01*
Y789520D01*
X1334060D01*
Y791037D01*
X1334041Y791240D01*
X1334032Y791397D01*
X1334014Y791536D01*
X1333995Y791638D01*
X1333986Y791702D01*
X1333967Y791749D01*
Y791758D01*
X1333930Y791860D01*
X1333875Y791952D01*
X1333819Y792026D01*
X1333764Y792091D01*
X1333718Y792137D01*
X1333671Y792174D01*
X1333644Y792192D01*
X1333634Y792202D01*
X1333542Y792257D01*
X1333450Y792294D01*
X1333357Y792322D01*
X1333265Y792340D01*
X1333191Y792350D01*
X1333135Y792359D01*
D02*
G37*
G36*
X1330334Y792636D02*
X1330297D01*
X1330278D01*
X1330167Y792627D01*
X1330056Y792618D01*
X1329964Y792599D01*
X1329890Y792571D01*
X1329825Y792544D01*
X1329770Y792525D01*
X1329742Y792516D01*
X1329733Y792507D01*
X1329650Y792451D01*
X1329576Y792405D01*
X1329520Y792340D01*
X1329465Y792294D01*
X1329428Y792248D01*
X1329400Y792211D01*
X1329381Y792183D01*
X1329372Y792174D01*
X1329298Y792017D01*
X1329243Y791860D01*
X1329224Y791795D01*
X1329215Y791739D01*
X1329206Y791702D01*
Y791693D01*
X1329196Y791619D01*
X1329187Y791536D01*
X1329178Y791342D01*
Y789520D01*
X1331378D01*
Y791203D01*
X1331360Y791397D01*
X1331342Y791554D01*
X1331323Y791684D01*
X1331304Y791786D01*
X1331286Y791869D01*
X1331277Y791906D01*
X1331268Y791924D01*
X1331221Y792045D01*
X1331166Y792146D01*
X1331101Y792239D01*
X1331036Y792313D01*
X1330981Y792368D01*
X1330935Y792405D01*
X1330898Y792433D01*
X1330888Y792442D01*
X1330787Y792507D01*
X1330685Y792553D01*
X1330583Y792590D01*
X1330491Y792608D01*
X1330408Y792627D01*
X1330334Y792636D01*
D02*
G37*
%LPD*%
D12*
X1118170Y762670D02*
X1157670D01*
X1118170D02*
Y814670D01*
X1157670D01*
Y762670D02*
Y814670D01*
X1153291Y830000D02*
Y846000D01*
X1126709Y830000D02*
X1153291D01*
X1126709D02*
Y846000D01*
X1153291D01*
X1126709Y731000D02*
Y747000D01*
X1153291D01*
Y731000D02*
Y747000D01*
X1126709Y731000D02*
X1153291D01*
X1187370Y631620D02*
X1469470D01*
X1187370D02*
Y945720D01*
X1469470D01*
Y631620D02*
Y945720D01*
M02*
