G04*
G04 #@! TF.GenerationSoftware,Altium Limited,Altium Designer,25.0.2 (28)*
G04*
G04 Layer_Physical_Order=2*
G04 Layer_Color=16711680*
%FSLAX44Y44*%
%MOMM*%
G71*
G04*
G04 #@! TF.SameCoordinates,16F35CEF-FA67-4110-AEDA-BA59390F761F*
G04*
G04*
G04 #@! TF.FilePolarity,Positive*
G04*
G01*
G75*
%ADD14R,0.4500X0.4500*%
%ADD35C,2.1450*%
%ADD36R,2.1450X2.1450*%
%ADD38C,0.1600*%
%ADD39C,0.8500*%
%ADD40C,5.0000*%
%ADD41C,0.4000*%
%ADD42R,1.0500X1.4000*%
%ADD43R,1.1000X1.7000*%
%ADD44P,0.6364X4X263.0*%
%ADD45P,0.6364X4X187.0*%
%ADD46P,0.6364X4X293.0*%
%ADD47P,0.6364X4X180.0*%
%ADD48P,0.6364X4X173.0*%
%ADD49P,0.6364X4X160.0*%
%ADD50P,0.6364X4X100.0*%
%ADD51P,0.6364X4X400.0*%
%ADD52P,0.6364X4X270.0*%
%ADD53P,0.6364X4X277.0*%
%ADD54P,0.6364X4X350.0*%
%ADD55P,0.6364X4X50.0*%
%ADD56R,1.2000X1.2000*%
%ADD57R,1.0057X1.3082*%
G36*
X1349721Y1004943D02*
X1363820Y1003087D01*
X1377768Y1000313D01*
X1391505Y996632D01*
X1404971Y992061D01*
X1418109Y986619D01*
X1430864Y980329D01*
X1443180Y973218D01*
X1455004Y965318D01*
X1466286Y956660D01*
X1476978Y947284D01*
X1487034Y937228D01*
X1496410Y926536D01*
X1505068Y915254D01*
X1512968Y903430D01*
X1520079Y891114D01*
X1526369Y878359D01*
X1531811Y865221D01*
X1536382Y851755D01*
X1540063Y838018D01*
X1542837Y824070D01*
X1544693Y809971D01*
X1545623Y795780D01*
Y788670D01*
Y781560D01*
X1544693Y767369D01*
X1542837Y753270D01*
X1540063Y739322D01*
X1536382Y725585D01*
X1531811Y712119D01*
X1526369Y698981D01*
X1520079Y686226D01*
X1512968Y673910D01*
X1505068Y662086D01*
X1496410Y650804D01*
X1487034Y640112D01*
X1476978Y630056D01*
X1466286Y620680D01*
X1455004Y612022D01*
X1443180Y604122D01*
X1430864Y597011D01*
X1418109Y590721D01*
X1404971Y585279D01*
X1391505Y580708D01*
X1377768Y577027D01*
X1363820Y574253D01*
X1349721Y572397D01*
X1335531Y571467D01*
X1321310D01*
X1307119Y572397D01*
X1293020Y574253D01*
X1279072Y577027D01*
X1265335Y580708D01*
X1251869Y585279D01*
X1238731Y590721D01*
X1225976Y597011D01*
X1213660Y604122D01*
X1201836Y612022D01*
X1190554Y620680D01*
X1179862Y630056D01*
X1169806Y640112D01*
X1160430Y650804D01*
X1151772Y662086D01*
X1143872Y673910D01*
X1136761Y686226D01*
X1130471Y698981D01*
X1125029Y712119D01*
X1120458Y725585D01*
X1116777Y739322D01*
X1114003Y753270D01*
X1112147Y767369D01*
X1111217Y781560D01*
Y788670D01*
Y795780D01*
X1112147Y809971D01*
X1114003Y824070D01*
X1116777Y838018D01*
X1120458Y851755D01*
X1125029Y865221D01*
X1130471Y878359D01*
X1136761Y891114D01*
X1143872Y903430D01*
X1151772Y915254D01*
X1160430Y926536D01*
X1169806Y937228D01*
X1179862Y947284D01*
X1190554Y956660D01*
X1201836Y965318D01*
X1213660Y973218D01*
X1225976Y980329D01*
X1238731Y986619D01*
X1251869Y992061D01*
X1265335Y996632D01*
X1279072Y1000313D01*
X1293020Y1003087D01*
X1307119Y1004943D01*
X1321310Y1005873D01*
X1335531D01*
X1349721Y1004943D01*
D02*
G37*
%LPC*%
G36*
X1330981Y1001360D02*
X1325859D01*
X1320836Y1000361D01*
X1316104Y998401D01*
X1311846Y995555D01*
X1308224Y991934D01*
X1305379Y987676D01*
X1303419Y982944D01*
X1302420Y977921D01*
Y972799D01*
X1303419Y967776D01*
X1305379Y963044D01*
X1308224Y958786D01*
X1311846Y955164D01*
X1316104Y952319D01*
X1320836Y950359D01*
X1325859Y949360D01*
X1330981D01*
X1336004Y950359D01*
X1340736Y952319D01*
X1344994Y955164D01*
X1348616Y958786D01*
X1351461Y963044D01*
X1353421Y967776D01*
X1354420Y972799D01*
Y977921D01*
X1353421Y982944D01*
X1351461Y987676D01*
X1348616Y991934D01*
X1344994Y995555D01*
X1340736Y998401D01*
X1336004Y1000361D01*
X1330981Y1001360D01*
D02*
G37*
G36*
X1381172Y915424D02*
X1376576Y910828D01*
X1377576Y909828D01*
X1375813Y908064D01*
X1374737Y908510D01*
X1373543D01*
X1372441Y908053D01*
X1371597Y907209D01*
X1371140Y906107D01*
Y904913D01*
X1371597Y903811D01*
X1372441Y902967D01*
X1373543Y902510D01*
X1374737D01*
X1375839Y902967D01*
X1376683Y903811D01*
X1376862Y904243D01*
X1377015Y904274D01*
X1377610Y904671D01*
X1379684Y906745D01*
X1381172Y906232D01*
X1382232Y905172D01*
X1382745Y903684D01*
X1360339Y881278D01*
X1359337D01*
X1358235Y880821D01*
X1357391Y879977D01*
X1356934Y878874D01*
Y877681D01*
X1357391Y876578D01*
X1358235Y875734D01*
X1359337Y875278D01*
X1360531D01*
X1361634Y875734D01*
X1362478Y876578D01*
X1362934Y877681D01*
Y878682D01*
X1385828Y901576D01*
X1386828Y900575D01*
X1391425Y905172D01*
X1386899Y909697D01*
X1386828Y909768D01*
X1385768Y910828D01*
X1385697Y910899D01*
X1381172Y915424D01*
D02*
G37*
G36*
X1329964Y936395D02*
X1326876D01*
X1323894Y935596D01*
X1321221Y934053D01*
X1319038Y931870D01*
X1317494Y929196D01*
X1316773Y926506D01*
X1276206D01*
X1275504Y926366D01*
X1274909Y925968D01*
X1261082Y912142D01*
X1260684Y911546D01*
X1260545Y910844D01*
Y873252D01*
X1260684Y872550D01*
X1261082Y871954D01*
X1288590Y844446D01*
Y843445D01*
X1289047Y842343D01*
X1289891Y841499D01*
X1290993Y841042D01*
X1292187D01*
X1293289Y841499D01*
X1294133Y842343D01*
X1294590Y843445D01*
Y844639D01*
X1294133Y845741D01*
X1293289Y846585D01*
X1292187Y847042D01*
X1291185D01*
X1264215Y874012D01*
Y904115D01*
X1264446Y904374D01*
X1266239Y904508D01*
X1266608Y904140D01*
X1270172Y900575D01*
X1274768Y905172D01*
X1274768D01*
X1276029Y906432D01*
X1277629D01*
X1282145Y901916D01*
Y896316D01*
X1282285Y895614D01*
X1282682Y895018D01*
X1331665Y846036D01*
Y837667D01*
X1331039Y837408D01*
X1330195Y836564D01*
X1329738Y835461D01*
Y834268D01*
X1329843Y834015D01*
X1328854Y832415D01*
X1278338D01*
X1278020Y834015D01*
X1278303Y834133D01*
X1279147Y834977D01*
X1279604Y836079D01*
Y837273D01*
X1279147Y838375D01*
X1278303Y839219D01*
X1277201Y839676D01*
X1276199D01*
X1222487Y893389D01*
Y904469D01*
X1223606Y905494D01*
X1223606D01*
X1224164Y911870D01*
X1224303Y913464D01*
X1224312Y913563D01*
X1224870Y919939D01*
X1218394Y920506D01*
X1218353Y920028D01*
X1216700Y919495D01*
X1205690Y930505D01*
Y931507D01*
X1205233Y932609D01*
X1204389Y933453D01*
X1203287Y933910D01*
X1202093D01*
X1200991Y933453D01*
X1200147Y932609D01*
X1199690Y931507D01*
Y930313D01*
X1200147Y929211D01*
X1200991Y928367D01*
X1202093Y927910D01*
X1203095D01*
X1215108Y915896D01*
X1215704Y915498D01*
X1216406Y915359D01*
X1216760D01*
X1217841Y914179D01*
X1217697Y912536D01*
X1217688Y912437D01*
X1217504Y910328D01*
X1216761Y910058D01*
X1215859Y909879D01*
X1215394Y910190D01*
X1214692Y910329D01*
X1202689D01*
X1201987Y910190D01*
X1201391Y909792D01*
X1197772Y906173D01*
X1197374Y905577D01*
X1197235Y904875D01*
Y867297D01*
X1195820Y866850D01*
X1194320D01*
Y866850D01*
X1187820D01*
Y862945D01*
X1179134Y854259D01*
X1154936D01*
X1149810Y859385D01*
Y860387D01*
X1149353Y861489D01*
X1148509Y862333D01*
X1147407Y862790D01*
X1146213D01*
X1145111Y862333D01*
X1144267Y861489D01*
X1143810Y860387D01*
Y859193D01*
X1144267Y858091D01*
X1145111Y857247D01*
X1146213Y856790D01*
X1147215D01*
X1151628Y852377D01*
X1150965Y850777D01*
X1137129D01*
X1136427Y850637D01*
X1135831Y850239D01*
X1131440Y845848D01*
X1131235Y845541D01*
X1126709D01*
Y833948D01*
X1126674Y833771D01*
Y827009D01*
X1125625Y825960D01*
X1124623D01*
X1123521Y825503D01*
X1122677Y824659D01*
X1122220Y823557D01*
Y822363D01*
X1122677Y821261D01*
X1123385Y820553D01*
Y760984D01*
X1123524Y760282D01*
X1123922Y759686D01*
X1135590Y748019D01*
X1134977Y746541D01*
X1126709D01*
Y731459D01*
X1131120D01*
X1131157Y730197D01*
X1131231Y729873D01*
X1131296Y729548D01*
X1131311Y729525D01*
X1131317Y729499D01*
X1131509Y729228D01*
X1131694Y728952D01*
X1131716Y728937D01*
X1131732Y728915D01*
X1132013Y728739D01*
X1132289Y728554D01*
X1132316Y728549D01*
X1132339Y728535D01*
X1132665Y728480D01*
X1132991Y728415D01*
X1252982D01*
X1253684Y728554D01*
X1254280Y728952D01*
X1285720Y760393D01*
X1286396Y760283D01*
X1287438Y759848D01*
X1287777Y759031D01*
X1288621Y758187D01*
X1289723Y757730D01*
X1290917D01*
X1292019Y758187D01*
X1292727Y758895D01*
X1313949D01*
X1314651Y759034D01*
X1315247Y759432D01*
X1316741Y760927D01*
X1338201D01*
X1350702Y748426D01*
Y678842D01*
X1347975Y676712D01*
X1351916Y671669D01*
X1351977Y671590D01*
X1352901Y670408D01*
X1352962Y670329D01*
X1356903Y665286D01*
X1362025Y669288D01*
X1360917Y670706D01*
X1363774Y673564D01*
X1366894D01*
X1367361Y673097D01*
X1368463Y672640D01*
X1369657D01*
X1370759Y673097D01*
X1371603Y673941D01*
X1372060Y675043D01*
Y676237D01*
X1371603Y677339D01*
X1370759Y678183D01*
X1369657Y678640D01*
X1368463D01*
X1367361Y678183D01*
X1366517Y677339D01*
X1366473Y677234D01*
X1363014D01*
X1362312Y677094D01*
X1361716Y676696D01*
X1359529Y674510D01*
X1357865Y674611D01*
X1357099Y675592D01*
X1357038Y675670D01*
X1354373Y679082D01*
Y749186D01*
X1354233Y749888D01*
X1353835Y750483D01*
X1340259Y764060D01*
X1339663Y764458D01*
X1338961Y764597D01*
X1315981D01*
X1315279Y764458D01*
X1314684Y764060D01*
X1313189Y762565D01*
X1292727D01*
X1292019Y763273D01*
X1291202Y763612D01*
X1290767Y764654D01*
X1290657Y765330D01*
X1296668Y771341D01*
X1328166D01*
X1328868Y771480D01*
X1329464Y771878D01*
X1333528Y775942D01*
X1339445Y781860D01*
X1340447D01*
X1341549Y782317D01*
X1342393Y783161D01*
X1342850Y784263D01*
Y785457D01*
X1342437Y786455D01*
X1342781Y786685D01*
X1349088Y792992D01*
X1349486Y793587D01*
X1349625Y794290D01*
Y797438D01*
X1349486Y798140D01*
X1349088Y798736D01*
X1342761Y805062D01*
X1343424Y806663D01*
X1352663D01*
X1396336Y762989D01*
Y718589D01*
X1393575Y715828D01*
X1398171Y711232D01*
X1398171D01*
X1399303Y710101D01*
X1403828Y705576D01*
X1408425Y710172D01*
X1405664Y712933D01*
Y714728D01*
X1408025Y717090D01*
X1409027D01*
X1410129Y717547D01*
X1410973Y718391D01*
X1411430Y719493D01*
Y720687D01*
X1410973Y721789D01*
X1410129Y722633D01*
X1409027Y723090D01*
X1407833D01*
X1406731Y722633D01*
X1405887Y721789D01*
X1405430Y720687D01*
Y719685D01*
X1402531Y716786D01*
X1401874Y716722D01*
X1400007Y718589D01*
Y763750D01*
X1399867Y764452D01*
X1399469Y765047D01*
X1371662Y792855D01*
X1372324Y794455D01*
X1441820D01*
Y793040D01*
X1448320D01*
Y793040D01*
X1449820D01*
Y793040D01*
X1453725D01*
X1469562Y777202D01*
X1470158Y776804D01*
X1470860Y776665D01*
X1509380D01*
Y771500D01*
X1523380D01*
Y785500D01*
X1524848Y785819D01*
X1527245D01*
Y769478D01*
X1524142Y766375D01*
X1503408D01*
X1502706Y766236D01*
X1502110Y765838D01*
X1491218Y754945D01*
X1462530D01*
X1451638Y765838D01*
X1451042Y766236D01*
X1450340Y766375D01*
X1438925D01*
X1438223Y766236D01*
X1437628Y765838D01*
X1435706Y763916D01*
X1434288Y765025D01*
X1430286Y759903D01*
X1435330Y755962D01*
X1435408Y755901D01*
X1436590Y754977D01*
X1436669Y754916D01*
X1441712Y750975D01*
X1441712D01*
X1443038Y751056D01*
X1459416Y734678D01*
X1459227Y734489D01*
X1458770Y733387D01*
Y732193D01*
X1459227Y731091D01*
X1460071Y730247D01*
X1461173Y729790D01*
X1462367D01*
X1463469Y730247D01*
X1464313Y731091D01*
X1464770Y732193D01*
Y733387D01*
X1464313Y734489D01*
X1463469Y735333D01*
X1463127Y735475D01*
X1463006Y736081D01*
X1462608Y736676D01*
X1444606Y754679D01*
X1445714Y756097D01*
X1440671Y760038D01*
X1440490Y760179D01*
X1440311Y762307D01*
X1440672Y762705D01*
X1449580D01*
X1460472Y751812D01*
X1461068Y751414D01*
X1461770Y751275D01*
X1491978D01*
X1492680Y751414D01*
X1493276Y751812D01*
X1504168Y762705D01*
X1524902D01*
X1525605Y762844D01*
X1526200Y763242D01*
X1530378Y767420D01*
X1530776Y768016D01*
X1530915Y768718D01*
Y786717D01*
X1530776Y787419D01*
X1530378Y788015D01*
X1529440Y788952D01*
X1528845Y789350D01*
X1528143Y789489D01*
X1497836D01*
X1485674Y801652D01*
X1485078Y802050D01*
X1484376Y802189D01*
X1436622D01*
X1399221Y839591D01*
X1399883Y841191D01*
X1421003D01*
X1447048Y815146D01*
X1446060Y812702D01*
X1451994Y810305D01*
X1452087Y810267D01*
X1453478Y809706D01*
X1453571Y809668D01*
X1459504Y807271D01*
X1461283Y811672D01*
X1463115Y813505D01*
X1493653D01*
X1494361Y812797D01*
X1495463Y812340D01*
X1496657D01*
X1497759Y812797D01*
X1498603Y813641D01*
X1499060Y814743D01*
Y815937D01*
X1498603Y817039D01*
X1497759Y817883D01*
X1496657Y818340D01*
X1495463D01*
X1494361Y817883D01*
X1493653Y817175D01*
X1462355D01*
X1461653Y817036D01*
X1461057Y816638D01*
X1458932Y814512D01*
X1456006Y815695D01*
X1455913Y815732D01*
X1454522Y816294D01*
X1454429Y816332D01*
X1448765Y818620D01*
X1423061Y844324D01*
X1422466Y844722D01*
X1421763Y844861D01*
X1376293D01*
X1375585Y845569D01*
X1374483Y846026D01*
X1373289D01*
X1372187Y845569D01*
X1371343Y844725D01*
X1370886Y843623D01*
Y842429D01*
X1369732Y841035D01*
X1353580D01*
X1319990Y874625D01*
Y875627D01*
X1319533Y876729D01*
X1318689Y877573D01*
X1317587Y878030D01*
X1316393D01*
X1315291Y877573D01*
X1314447Y876729D01*
X1313990Y875627D01*
Y874433D01*
X1314447Y873331D01*
X1315291Y872487D01*
X1316393Y872030D01*
X1317395D01*
X1351523Y837902D01*
X1352118Y837504D01*
X1352820Y837365D01*
X1396256D01*
X1433895Y799725D01*
X1433233Y798125D01*
X1372077D01*
X1359817Y810385D01*
X1360429Y811863D01*
X1361450D01*
X1362152Y812003D01*
X1362747Y812401D01*
X1379832Y829485D01*
X1380833D01*
X1381935Y829942D01*
X1382779Y830786D01*
X1383236Y831888D01*
Y833082D01*
X1382779Y834184D01*
X1381935Y835028D01*
X1380833Y835485D01*
X1379639D01*
X1378537Y835028D01*
X1377693Y834184D01*
X1377236Y833082D01*
Y832081D01*
X1361918Y816763D01*
X1360376Y817483D01*
Y818096D01*
X1359919Y819198D01*
X1359211Y819906D01*
Y830326D01*
X1359072Y831028D01*
X1358674Y831624D01*
X1358420Y831878D01*
X1357824Y832276D01*
X1357122Y832415D01*
X1336622D01*
X1335633Y834015D01*
X1335738Y834268D01*
Y835461D01*
X1335335Y836433D01*
Y846796D01*
X1335196Y847498D01*
X1334798Y848094D01*
X1289336Y893556D01*
X1289479Y895347D01*
X1290187Y896055D01*
X1350772D01*
X1351474Y896194D01*
X1352070Y896592D01*
X1374900Y919423D01*
X1431176D01*
X1431697Y913464D01*
X1431697D01*
X1431828Y911970D01*
D01*
X1431836Y911870D01*
X1432394Y905494D01*
X1438869Y906061D01*
X1438581Y909353D01*
X1439662Y910533D01*
X1442934D01*
X1443530Y910044D01*
Y909993D01*
X1443987Y908891D01*
X1444831Y908047D01*
X1445154Y907913D01*
Y907582D01*
X1445294Y906879D01*
X1445692Y906284D01*
X1446438Y905537D01*
X1446283Y903765D01*
X1445522Y903232D01*
X1445440Y903175D01*
X1440197Y899504D01*
X1441321Y897899D01*
X1413683Y870261D01*
X1353433D01*
X1352725Y870969D01*
X1351623Y871426D01*
X1350429D01*
X1349327Y870969D01*
X1348483Y870125D01*
X1348026Y869023D01*
Y867829D01*
X1348483Y866727D01*
X1349327Y865883D01*
X1350429Y865426D01*
X1351623D01*
X1352725Y865883D01*
X1353433Y866591D01*
X1414444D01*
X1415146Y866730D01*
X1415741Y867128D01*
X1442884Y894271D01*
X1443925Y894180D01*
X1443925Y894180D01*
X1449168Y897850D01*
X1450479Y898768D01*
X1450561Y898825D01*
X1455803Y902496D01*
X1452075Y907820D01*
X1451230Y907229D01*
X1450006Y907733D01*
X1449291Y909416D01*
X1449530Y909993D01*
Y911187D01*
X1449073Y912289D01*
X1448229Y913133D01*
X1448216Y913183D01*
X1448027Y914949D01*
X1448226Y915247D01*
X1448365Y915949D01*
Y920750D01*
X1448226Y921452D01*
X1447828Y922048D01*
X1447320Y922556D01*
X1446724Y922954D01*
X1446022Y923093D01*
X1374140D01*
X1373438Y922954D01*
X1372842Y922556D01*
X1350012Y899725D01*
X1290187D01*
X1289479Y900433D01*
X1288377Y900890D01*
X1287183D01*
X1285815Y902055D01*
Y902676D01*
X1285676Y903379D01*
X1285278Y903974D01*
X1279424Y909828D01*
X1280424Y910828D01*
X1275828Y915424D01*
X1274790Y916594D01*
X1276348Y918153D01*
X1310515D01*
X1311450Y917218D01*
Y916343D01*
X1311907Y915241D01*
X1312751Y914397D01*
X1313853Y913940D01*
X1315047D01*
X1316149Y914397D01*
X1316993Y915241D01*
X1317450Y916343D01*
Y917021D01*
X1318992Y917458D01*
X1319050Y917459D01*
X1321221Y915288D01*
X1323894Y913744D01*
X1326876Y912945D01*
X1329964D01*
X1332946Y913744D01*
X1335619Y915288D01*
X1337802Y917471D01*
X1339346Y920145D01*
X1340145Y923127D01*
Y926214D01*
X1339346Y929196D01*
X1337802Y931870D01*
X1335619Y934053D01*
X1332946Y935596D01*
X1329964Y936395D01*
D02*
G37*
G36*
X1523380Y806500D02*
X1509380D01*
Y801335D01*
X1503150D01*
X1502870Y801615D01*
Y801967D01*
X1502413Y803069D01*
X1501569Y803913D01*
X1500467Y804370D01*
X1499273D01*
X1498171Y803913D01*
X1497327Y803069D01*
X1496870Y801967D01*
Y800773D01*
X1497327Y799671D01*
X1498171Y798827D01*
X1499273Y798370D01*
X1500467D01*
X1500790Y798504D01*
X1501092Y798202D01*
X1501687Y797804D01*
X1502389Y797665D01*
X1509380D01*
Y792500D01*
X1523380D01*
Y806500D01*
D02*
G37*
G36*
X1338961Y739197D02*
X1273556D01*
X1272854Y739058D01*
X1272258Y738660D01*
X1263876Y730278D01*
X1263687Y729994D01*
X1263492Y729715D01*
X1263488Y729697D01*
X1263478Y729682D01*
X1263412Y729349D01*
X1263339Y729016D01*
X1263120Y717664D01*
X1260589D01*
X1257828Y720424D01*
X1253303Y715899D01*
X1253232Y715828D01*
X1252172Y714768D01*
X1252101Y714697D01*
X1251562Y714159D01*
X1250202Y715061D01*
Y719153D01*
X1250062Y719855D01*
X1249665Y720451D01*
X1248727Y721388D01*
X1248132Y721786D01*
X1247430Y721925D01*
X1245737D01*
X1245029Y722633D01*
X1243927Y723090D01*
X1242733D01*
X1241631Y722633D01*
X1240787Y721789D01*
X1240330Y720687D01*
Y719493D01*
X1240787Y718391D01*
X1241631Y717547D01*
X1242733Y717090D01*
X1243927D01*
X1245029Y717547D01*
X1246532Y716786D01*
Y713977D01*
X1246671Y713274D01*
X1247069Y712679D01*
X1248576Y711172D01*
X1247576Y710172D01*
X1252172Y705576D01*
X1256697Y710101D01*
X1256768Y710172D01*
X1257828Y711232D01*
X1257899Y711303D01*
X1260589Y713993D01*
X1264920D01*
X1265254Y714060D01*
X1265589Y714120D01*
X1265605Y714129D01*
X1265622Y714133D01*
X1265906Y714322D01*
X1266192Y714506D01*
X1266203Y714521D01*
X1266218Y714531D01*
X1266407Y714814D01*
X1266602Y715094D01*
X1266606Y715111D01*
X1266616Y715126D01*
X1266682Y715460D01*
X1266755Y715793D01*
X1266995Y728205D01*
X1272766Y733977D01*
X1274366Y733314D01*
Y732828D01*
X1274823Y731726D01*
X1275531Y731018D01*
Y714288D01*
X1275670Y713586D01*
X1276068Y712990D01*
X1292574Y696485D01*
X1292431Y694693D01*
X1291723Y693985D01*
X1285240D01*
X1284538Y693846D01*
X1283942Y693448D01*
X1255165Y664670D01*
X1254163D01*
X1253061Y664213D01*
X1252217Y663369D01*
X1251760Y662267D01*
Y661073D01*
X1252217Y659971D01*
X1253061Y659127D01*
X1254163Y658670D01*
X1255357D01*
X1256459Y659127D01*
X1257303Y659971D01*
X1257760Y661073D01*
Y662075D01*
X1286000Y690315D01*
X1291723D01*
X1292431Y689607D01*
X1293533Y689150D01*
X1294727D01*
X1295829Y689607D01*
X1296673Y690451D01*
X1298465Y690594D01*
X1299627Y689431D01*
Y679082D01*
X1296962Y675671D01*
X1296900Y675592D01*
X1296135Y674612D01*
X1294471Y674510D01*
X1293772Y675209D01*
X1293177Y675606D01*
X1292474Y675746D01*
X1291727D01*
X1291593Y676069D01*
X1290749Y676913D01*
X1289647Y677370D01*
X1288453D01*
X1287351Y676913D01*
X1286507Y676069D01*
X1286050Y674967D01*
Y673773D01*
X1286507Y672671D01*
X1287351Y671827D01*
X1288453Y671370D01*
X1289647D01*
X1290749Y671827D01*
X1291745Y671591D01*
X1292518Y669982D01*
X1291976Y669288D01*
X1297097Y665286D01*
X1301038Y670329D01*
X1301099Y670408D01*
X1302084Y671669D01*
X1306024Y676712D01*
X1303298Y678842D01*
Y690191D01*
X1303158Y690894D01*
X1302760Y691489D01*
X1279201Y715048D01*
Y731018D01*
X1279909Y731726D01*
X1280366Y732828D01*
Y734022D01*
X1281474Y735527D01*
X1338201D01*
X1340977Y732750D01*
X1340024Y731495D01*
X1316695D01*
Y708045D01*
X1340145D01*
Y710160D01*
X1340357Y710394D01*
X1341745Y711097D01*
X1342301Y710867D01*
X1343495D01*
X1344597Y711324D01*
X1345441Y712168D01*
X1345898Y713270D01*
Y714464D01*
X1345441Y715566D01*
X1344733Y716274D01*
Y733425D01*
X1344594Y734127D01*
X1344196Y734723D01*
X1340259Y738660D01*
X1339663Y739058D01*
X1338961Y739197D01*
D02*
G37*
G36*
X1436967Y696420D02*
X1435773D01*
X1434671Y695963D01*
X1433827Y695119D01*
X1433693Y694796D01*
X1432101D01*
X1431398Y694656D01*
X1430803Y694258D01*
X1417725Y681180D01*
X1416723D01*
X1415621Y680723D01*
X1414777Y679879D01*
X1414320Y678777D01*
Y677583D01*
X1414777Y676481D01*
X1415621Y675637D01*
X1416723Y675180D01*
X1417917D01*
X1419019Y675637D01*
X1419863Y676481D01*
X1420320Y677583D01*
Y678585D01*
X1432861Y691125D01*
X1434422D01*
X1434671Y690877D01*
X1435773Y690420D01*
X1436967D01*
X1438069Y690877D01*
X1438913Y691721D01*
X1439370Y692823D01*
Y694017D01*
X1438913Y695119D01*
X1438069Y695963D01*
X1436967Y696420D01*
D02*
G37*
G36*
X1316317Y698960D02*
X1315123D01*
X1314021Y698503D01*
X1313177Y697659D01*
X1312720Y696557D01*
Y695363D01*
X1313177Y694261D01*
X1313885Y693553D01*
Y655320D01*
X1314024Y654618D01*
X1314422Y654022D01*
X1326585Y641860D01*
Y619627D01*
X1325877Y618919D01*
X1325420Y617817D01*
Y616623D01*
X1325877Y615521D01*
X1326721Y614677D01*
X1327823Y614220D01*
X1329017D01*
X1330119Y614677D01*
X1330963Y615521D01*
X1331420Y616623D01*
Y617817D01*
X1330963Y618919D01*
X1330255Y619627D01*
Y642620D01*
X1330116Y643322D01*
X1329718Y643918D01*
X1317555Y656080D01*
Y693553D01*
X1318263Y694261D01*
X1318720Y695363D01*
Y696557D01*
X1318263Y697659D01*
X1317419Y698503D01*
X1316317Y698960D01*
D02*
G37*
G36*
X1410744Y608250D02*
X1408656D01*
X1406726Y607451D01*
X1405249Y605974D01*
X1404450Y604044D01*
Y601956D01*
X1405249Y600026D01*
X1406726Y598549D01*
X1408656Y597750D01*
X1410744D01*
X1412674Y598549D01*
X1414151Y600026D01*
X1414950Y601956D01*
Y604044D01*
X1414151Y605974D01*
X1412674Y607451D01*
X1410744Y608250D01*
D02*
G37*
G36*
X1246914D02*
X1244826D01*
X1242896Y607451D01*
X1241419Y605974D01*
X1240620Y604044D01*
Y601956D01*
X1241419Y600026D01*
X1242896Y598549D01*
X1244826Y597750D01*
X1246914D01*
X1248844Y598549D01*
X1250321Y600026D01*
X1251120Y601956D01*
Y604044D01*
X1250321Y605974D01*
X1248844Y607451D01*
X1246914Y608250D01*
D02*
G37*
G36*
X1376454Y595250D02*
X1374366D01*
X1372436Y594451D01*
X1370959Y592974D01*
X1370160Y591044D01*
Y588955D01*
X1370959Y587026D01*
X1372436Y585549D01*
X1374366Y584750D01*
X1376454D01*
X1378384Y585549D01*
X1379861Y587026D01*
X1380660Y588955D01*
Y591044D01*
X1379861Y592974D01*
X1378384Y594451D01*
X1376454Y595250D01*
D02*
G37*
G36*
X1281204D02*
X1279116D01*
X1277186Y594451D01*
X1275709Y592974D01*
X1274910Y591044D01*
Y588955D01*
X1275709Y587026D01*
X1277186Y585549D01*
X1279116Y584750D01*
X1281204D01*
X1283134Y585549D01*
X1284611Y587026D01*
X1285410Y588955D01*
Y591044D01*
X1284611Y592974D01*
X1283134Y594451D01*
X1281204Y595250D01*
D02*
G37*
G36*
X1342884Y589250D02*
X1340795D01*
X1338866Y588451D01*
X1337389Y586974D01*
X1336590Y585044D01*
Y582956D01*
X1337389Y581026D01*
X1338866Y579549D01*
X1340795Y578750D01*
X1342884D01*
X1344814Y579549D01*
X1346291Y581026D01*
X1347090Y582956D01*
Y585044D01*
X1346291Y586974D01*
X1344814Y588451D01*
X1342884Y589250D01*
D02*
G37*
G36*
X1316044D02*
X1313956D01*
X1312026Y588451D01*
X1310549Y586974D01*
X1309750Y585044D01*
Y582956D01*
X1310549Y581026D01*
X1312026Y579549D01*
X1313956Y578750D01*
X1316044D01*
X1317974Y579549D01*
X1319451Y581026D01*
X1320250Y582956D01*
Y585044D01*
X1319451Y586974D01*
X1317974Y588451D01*
X1316044Y589250D01*
D02*
G37*
%LPD*%
G36*
X1209481Y895996D02*
Y887740D01*
X1209621Y887037D01*
X1210019Y886442D01*
X1251403Y845058D01*
X1250308Y843890D01*
X1245695D01*
Y844804D01*
X1245555Y845506D01*
X1245158Y846102D01*
X1241704Y849555D01*
X1241109Y849953D01*
X1240406Y850093D01*
X1182421D01*
X1181758Y851693D01*
X1190415Y860350D01*
X1194320D01*
Y860350D01*
X1195820D01*
Y860350D01*
X1202320D01*
Y866850D01*
X1200905D01*
Y888089D01*
X1201535Y888511D01*
X1202505Y888895D01*
X1203363Y888540D01*
X1204557D01*
X1205659Y888997D01*
X1206503Y889841D01*
X1206960Y890943D01*
Y892137D01*
X1206559Y893105D01*
Y896089D01*
X1208159Y896922D01*
X1209481Y895996D01*
D02*
G37*
G36*
X1269171Y827290D02*
X1268559Y825811D01*
X1250360D01*
Y843838D01*
X1251528Y844933D01*
X1269171Y827290D01*
D02*
G37*
G36*
X1205066Y844822D02*
X1202916Y842673D01*
X1202518Y842077D01*
X1202379Y841375D01*
Y818018D01*
X1199817Y816823D01*
X1198367Y816147D01*
Y816147D01*
X1193041Y813663D01*
X1190242D01*
X1187268Y816638D01*
X1186673Y817036D01*
X1185970Y817175D01*
X1165727D01*
X1165019Y817883D01*
X1163917Y818340D01*
X1162723D01*
X1161355Y819505D01*
Y840997D01*
X1161216Y841700D01*
X1160818Y842295D01*
X1158290Y844822D01*
X1158953Y846422D01*
X1204403D01*
X1205066Y844822D01*
D02*
G37*
G36*
X1341854Y813749D02*
X1342450Y813351D01*
X1343152Y813212D01*
X1346571D01*
X1347971Y811811D01*
X1347359Y810333D01*
X1327763D01*
X1327250Y810676D01*
X1326548Y810815D01*
X1301617D01*
X1300909Y811523D01*
X1299807Y811980D01*
X1298613D01*
X1297511Y811523D01*
X1296667Y810679D01*
X1296210Y809577D01*
Y808383D01*
X1295045Y807015D01*
X1273677D01*
X1273105Y807587D01*
Y810393D01*
X1273813Y811101D01*
X1274270Y812203D01*
Y813205D01*
X1279469Y818403D01*
X1337200D01*
X1341854Y813749D01*
D02*
G37*
G36*
X1208360Y839962D02*
Y824890D01*
X1213025D01*
Y810385D01*
X1210417Y807777D01*
X1199494D01*
X1199148Y809339D01*
X1201114Y810256D01*
X1201114Y810256D01*
X1202474Y810890D01*
X1202474Y810890D01*
X1208365Y813637D01*
X1206049Y818603D01*
Y840190D01*
X1206760Y840744D01*
X1208360Y839962D01*
D02*
G37*
G36*
X1234637Y829947D02*
Y824230D01*
X1234776Y823528D01*
X1235174Y822932D01*
X1235428Y822678D01*
X1236024Y822280D01*
X1236726Y822141D01*
X1275752D01*
X1276415Y820541D01*
X1271675Y815800D01*
X1270673D01*
X1269571Y815343D01*
X1268727Y814499D01*
X1268270Y813397D01*
Y812203D01*
X1268727Y811101D01*
X1269435Y810393D01*
Y807587D01*
X1268727Y806879D01*
X1268270Y805777D01*
Y805577D01*
X1252344Y789651D01*
X1251946Y789056D01*
X1251922Y788935D01*
X1235712Y772725D01*
X1154670D01*
Y778670D01*
X1150255D01*
Y784100D01*
X1156998Y790842D01*
X1157396Y791438D01*
X1157535Y792140D01*
Y810893D01*
X1159135Y811555D01*
X1160448Y810242D01*
X1161044Y809845D01*
X1161746Y809705D01*
X1164582D01*
X1169642Y804644D01*
X1170238Y804246D01*
X1170940Y804107D01*
X1211177D01*
X1211880Y804246D01*
X1212475Y804644D01*
X1216158Y808327D01*
X1216556Y808923D01*
X1216695Y809625D01*
Y824890D01*
X1221360D01*
Y840961D01*
X1222960Y841623D01*
X1234637Y829947D01*
D02*
G37*
G36*
X1342434Y800198D02*
X1342291Y798407D01*
X1341880Y797996D01*
X1340965Y797686D01*
X1339880Y797962D01*
X1339517Y798325D01*
X1338415Y798782D01*
X1337221D01*
X1336119Y798325D01*
X1335411Y797617D01*
X1282954D01*
X1282252Y797478D01*
X1281656Y797080D01*
X1246875Y762298D01*
X1223843D01*
X1221712Y765025D01*
X1216590Y761023D01*
X1216590Y761023D01*
X1215408Y760099D01*
X1215330Y760038D01*
X1213990Y758991D01*
X1208957Y764024D01*
X1209043Y764111D01*
X1209500Y765213D01*
Y766407D01*
X1209043Y767509D01*
X1209761Y769055D01*
X1236472D01*
X1237174Y769194D01*
X1237770Y769592D01*
X1254939Y786762D01*
X1255337Y787357D01*
X1255361Y787477D01*
X1270242Y802359D01*
X1270673Y802180D01*
X1271867D01*
X1272969Y802637D01*
X1273677Y803345D01*
X1339288D01*
X1342434Y800198D01*
D02*
G37*
G36*
X1495778Y786356D02*
X1496374Y785958D01*
X1497076Y785819D01*
X1507912D01*
X1509380Y785500D01*
Y780335D01*
X1471620D01*
X1456320Y795635D01*
Y798519D01*
X1483616D01*
X1495778Y786356D01*
D02*
G37*
G36*
X1290939Y792347D02*
X1290800Y792254D01*
X1249936Y751389D01*
X1217275D01*
X1216754Y752902D01*
X1219410Y754977D01*
X1219410Y754977D01*
X1220592Y755901D01*
X1224082Y758627D01*
X1247635D01*
X1248337Y758767D01*
X1248932Y759165D01*
X1283714Y793947D01*
X1290454D01*
X1290939Y792347D01*
D02*
G37*
G36*
X1145427Y826317D02*
X1145567Y825615D01*
X1145965Y825020D01*
X1153865Y817120D01*
Y814670D01*
X1142170D01*
Y798670D01*
X1153865D01*
Y792900D01*
X1147122Y786158D01*
X1146724Y785562D01*
X1146585Y784860D01*
Y778670D01*
X1142170D01*
Y762670D01*
X1154670D01*
Y769055D01*
X1203239D01*
X1203957Y767509D01*
X1203500Y766407D01*
Y765213D01*
X1203957Y764111D01*
X1204801Y763267D01*
X1205188Y763107D01*
X1205264Y762724D01*
X1205661Y762128D01*
X1210367Y757423D01*
X1210286Y756097D01*
Y756097D01*
X1212841Y752827D01*
X1212140Y751389D01*
X1142927D01*
X1135755Y758561D01*
Y762670D01*
X1140170D01*
Y778670D01*
X1127670D01*
X1127055Y780015D01*
Y797325D01*
X1127670Y798670D01*
X1140170D01*
Y814670D01*
X1137092D01*
X1136429Y816270D01*
X1141504Y821344D01*
X1141902Y821940D01*
X1142041Y822642D01*
Y830459D01*
X1145427D01*
Y826317D01*
D02*
G37*
G36*
X1334663Y787643D02*
X1329995Y782974D01*
X1329597Y782379D01*
X1329458Y781677D01*
Y779075D01*
X1299133D01*
X1298431Y778936D01*
X1297836Y778538D01*
X1297438Y777942D01*
X1297298Y777240D01*
Y775011D01*
X1295908D01*
X1295206Y774872D01*
X1294610Y774474D01*
X1252222Y732085D01*
X1153291D01*
Y746541D01*
X1154310Y747719D01*
X1250696D01*
X1251398Y747858D01*
X1251994Y748256D01*
X1292858Y789121D01*
X1334051D01*
X1334663Y787643D01*
D02*
G37*
D14*
X1445070Y796290D02*
D03*
X1453070D02*
D03*
X1199070Y863600D02*
D03*
X1191070D02*
D03*
D35*
X1328420Y924670D02*
D03*
D36*
Y719770D02*
D03*
D38*
X1450340Y764540D02*
X1461770Y753110D01*
X1491978D02*
X1503408Y764540D01*
X1438925D02*
X1450340D01*
X1461770Y753110D02*
X1491978D01*
X1503408Y764540D02*
X1524902D01*
X1529080Y768718D01*
X1434848Y760463D02*
X1438925Y764540D01*
X1262380Y873252D02*
X1291590Y844042D01*
X1262380Y910844D02*
X1276206Y924670D01*
X1262380Y873252D02*
Y910844D01*
X1289509Y673911D02*
X1292474D01*
X1289050Y674370D02*
X1289509Y673911D01*
X1292474D02*
X1296537Y669848D01*
X1277366Y714288D02*
X1301463Y690191D01*
X1285240Y692150D02*
X1294130D01*
X1301463Y676152D02*
Y690191D01*
X1254760Y661670D02*
X1285240Y692150D01*
X1277366Y714288D02*
Y733425D01*
X1338961Y737362D02*
X1342898Y733425D01*
X1273556Y737362D02*
X1338961D01*
X1265174Y728980D02*
X1273556Y737362D01*
X1264920Y715828D02*
X1265174Y728980D01*
X1315720Y655320D02*
Y695960D01*
Y655320D02*
X1328420Y642620D01*
Y617220D02*
Y642620D01*
X1338961Y762762D02*
X1352537Y749186D01*
Y676152D02*
Y749186D01*
X1204724Y892953D02*
Y903294D01*
X1203960Y891540D02*
Y892189D01*
X1204724Y892953D01*
X1357519Y669904D02*
X1363014Y675399D01*
X1368819D01*
X1403828Y710172D02*
Y715489D01*
X1408430Y720090D01*
X1202690Y930910D02*
X1216406Y917194D01*
X1221140D02*
X1221349Y916985D01*
X1216406Y917194D02*
X1221140D01*
X1146810Y859790D02*
X1154176Y852424D01*
X1179894D01*
X1191070Y863600D01*
X1125220Y760984D02*
X1139444Y746760D01*
X1128509Y833771D02*
X1132737Y838000D01*
X1128509Y826249D02*
Y833771D01*
X1125220Y760984D02*
Y822960D01*
X1128509Y826249D01*
X1132737Y838000D02*
Y844550D01*
X1159520Y813766D02*
X1161746Y811540D01*
X1159520Y813766D02*
Y840997D01*
X1163320Y815340D02*
X1185970D01*
X1189482Y811828D01*
X1161746Y811540D02*
X1165342D01*
X1170940Y805942D01*
X1154176Y846341D02*
X1159520Y840997D01*
X1204214Y815209D02*
Y841375D01*
X1240406Y848257D02*
X1243860Y844804D01*
X1137129Y848942D02*
X1156008D01*
X1156692Y848257D01*
X1207643Y844804D02*
X1222375D01*
X1204214Y841375D02*
X1207643Y844804D01*
X1236472Y824230D02*
Y830707D01*
X1222375Y844804D02*
X1236472Y830707D01*
X1156692Y848257D02*
X1240406D01*
X1189482Y811828D02*
X1196795D01*
X1170940Y805942D02*
X1211177D01*
X1313949Y760730D02*
X1315981Y762762D01*
X1290320Y760730D02*
X1313949D01*
X1315981Y762762D02*
X1338961D01*
X1271270Y805180D02*
X1340048D01*
X1347790Y797438D01*
X1331293Y778177D02*
X1332230Y777240D01*
X1331293Y778177D02*
Y781677D01*
X1341484Y787983D02*
X1347790Y794290D01*
X1337599Y787983D02*
X1341484D01*
X1253641Y788353D02*
X1271270Y805982D01*
X1331293Y781677D02*
X1337599Y787983D01*
X1299210Y808980D02*
X1326548D01*
X1347790Y794290D02*
Y797438D01*
X1326548Y808980D02*
X1327030Y808498D01*
X1339082Y790956D02*
X1343990Y795864D01*
X1247635Y760463D02*
X1282954Y795782D01*
X1271270Y805982D02*
Y812800D01*
X1292098Y790956D02*
X1339082D01*
X1253641Y788059D02*
Y788353D01*
X1282954Y795782D02*
X1337818D01*
X1236472Y770890D02*
X1253641Y788059D01*
X1271270Y812800D02*
X1278709Y820239D01*
X1337960D01*
X1327030Y808498D02*
X1353423D01*
X1361450Y813699D02*
X1380236Y832485D01*
X1353947Y813699D02*
X1361450D01*
X1353423Y808498D02*
X1398171Y763750D01*
X1347331Y815047D02*
X1351280Y811098D01*
X1356508D01*
X1349998Y817647D02*
X1353947Y813699D01*
X1346708Y817647D02*
X1349998D01*
X1343152Y815047D02*
X1347331D01*
X1340379Y823976D02*
X1346708Y817647D01*
X1337960Y820239D02*
X1343152Y815047D01*
X1345504Y826577D02*
X1350391Y821690D01*
X1332230Y777240D02*
X1339850Y784860D01*
X1299133Y773176D02*
X1328166D01*
X1332230Y777240D01*
X1299133D02*
X1332230D01*
X1316990Y875030D02*
X1352820Y839200D01*
X1397016D01*
X1270172Y905172D02*
Y914572D01*
X1275588Y919988D02*
X1311275D01*
X1270172Y914572D02*
X1275588Y919988D01*
X1314323Y916940D02*
X1314450D01*
X1311275Y919988D02*
X1314323Y916940D01*
X1276206Y924670D02*
X1328420D01*
X1283980Y896316D02*
X1333500Y846796D01*
X1283980Y896316D02*
Y902676D01*
X1287780Y897890D02*
X1350772D01*
X1275828Y910828D02*
X1283980Y902676D01*
X1333500Y835627D02*
Y846796D01*
X1350772Y897890D02*
X1374140Y921258D01*
X1376313Y905969D02*
X1381172Y910828D01*
X1374599Y905969D02*
X1376313D01*
X1374140Y905510D02*
X1374599Y905969D01*
X1446530Y915949D02*
Y920750D01*
Y910590D02*
X1446989Y910131D01*
X1434651Y916985D02*
X1434793Y917127D01*
X1446989Y907582D02*
X1451277Y903294D01*
X1444956Y914390D02*
X1444971D01*
X1434793Y917127D02*
X1442333D01*
X1436110Y912368D02*
X1442934D01*
X1442333Y917127D02*
X1442475Y917269D01*
X1442934Y912368D02*
X1444956Y914390D01*
X1444971D02*
X1446530Y915949D01*
X1446989Y907582D02*
Y910131D01*
X1435348Y909015D02*
Y911606D01*
X1436110Y912368D01*
X1529080Y768718D02*
Y786717D01*
X1528143Y787654D02*
X1529080Y786717D01*
X1497076Y787654D02*
X1528143D01*
X1502389Y799500D02*
X1516380D01*
X1499870Y801370D02*
X1500519D01*
X1502389Y799500D01*
X1462355Y815340D02*
X1496060D01*
X1457708Y811502D02*
X1458517D01*
X1462355Y815340D01*
X1461311Y733249D02*
Y735379D01*
X1441152Y755537D02*
X1461311Y735379D01*
Y733249D02*
X1461770Y732790D01*
X1417320Y678180D02*
X1432101Y692961D01*
X1435911D02*
X1436370Y693420D01*
X1432101Y692961D02*
X1435911D01*
X1368819Y675399D02*
X1369060Y675640D01*
X1206959Y763426D02*
X1214848Y755537D01*
X1206959Y763426D02*
Y765351D01*
X1206500Y765810D02*
X1206959Y765351D01*
X1247430Y720090D02*
X1248367Y719153D01*
X1243330Y720090D02*
X1247430D01*
X1248367Y713977D02*
Y719153D01*
Y713977D02*
X1252172Y710172D01*
X1211277Y897372D02*
X1211316D01*
X1295908Y773176D02*
X1299133D01*
X1148420Y770890D02*
Y784860D01*
Y770670D02*
Y770890D01*
X1236472D01*
X1139444Y746760D02*
X1147009D01*
X1147263Y739000D01*
X1332738Y834865D02*
X1333500Y835627D01*
X1446022Y921258D02*
X1446530Y920750D01*
X1374140Y921258D02*
X1446022D01*
X1398171Y715828D02*
Y763750D01*
X1204046Y815209D02*
X1204214D01*
X1236472Y824230D02*
X1236726Y823976D01*
X1340379D01*
X1257828Y715828D02*
X1264920D01*
X1342898Y713867D02*
Y733425D01*
X1133920Y757801D02*
Y770670D01*
Y757801D02*
X1142167Y749554D01*
X1250696D01*
X1292098Y790956D01*
X1299133Y773176D02*
Y777240D01*
X1252982Y730250D02*
X1295908Y773176D01*
X1132991Y730250D02*
X1252982D01*
X1132737Y739000D02*
X1132991Y730250D01*
X1356508Y811098D02*
X1371317Y796290D01*
X1445070D01*
X1214860Y809625D02*
Y834390D01*
X1211177Y805942D02*
X1214860Y809625D01*
X1140460Y846341D02*
X1154176D01*
X1140206Y846087D02*
X1140460Y846341D01*
X1140206Y822642D02*
Y846087D01*
X1133920Y816356D02*
X1140206Y822642D01*
X1133920Y806670D02*
Y816356D01*
X1132737Y844550D02*
X1137129Y848942D01*
X1243860Y834390D02*
Y844804D01*
X1211277Y897372D02*
Y898706D01*
X1211316Y887740D02*
Y897372D01*
Y887740D02*
X1272479Y826577D01*
X1345504D01*
X1484376Y800354D02*
X1497076Y787654D01*
X1435862Y800354D02*
X1484376D01*
X1397016Y839200D02*
X1435862Y800354D01*
X1373886Y843026D02*
X1421763D01*
X1450291Y814498D01*
X1359934Y878278D02*
X1386828Y905172D01*
X1357376Y817499D02*
Y830326D01*
X1357122Y830580D02*
X1357376Y830326D01*
X1276096Y830580D02*
X1357122D01*
X1216406Y890270D02*
X1276096Y830580D01*
X1216406Y890270D02*
Y906780D01*
X1214692Y908494D02*
X1216406Y906780D01*
X1202689Y908494D02*
X1214692D01*
X1199070Y904875D02*
X1202689Y908494D01*
X1199070Y863600D02*
Y904875D01*
X1221152Y760463D02*
X1247635D01*
X1220651Y892629D02*
Y909015D01*
Y892629D02*
X1276604Y836676D01*
X1351026Y868426D02*
X1414444D01*
X1444724Y898706D01*
X1453070Y796290D02*
X1470860Y778500D01*
X1516380D01*
X1147263Y826317D02*
Y838000D01*
Y826317D02*
X1155700Y817880D01*
Y792140D02*
Y817880D01*
X1148420Y784860D02*
X1155700Y792140D01*
D39*
X1245870Y603000D02*
D03*
X1375410Y590000D02*
D03*
X1315000Y584000D02*
D03*
X1280160Y590000D02*
D03*
X1341840Y584000D02*
D03*
X1409700Y603000D02*
D03*
D40*
X1328420Y975360D02*
D03*
D41*
X1289050Y674370D02*
D03*
X1294130Y692150D02*
D03*
X1277366Y733425D02*
D03*
X1254760Y661670D02*
D03*
X1315720Y695960D02*
D03*
X1328420Y617220D02*
D03*
X1408430Y720090D02*
D03*
X1202690Y930910D02*
D03*
X1203960Y891540D02*
D03*
X1146810Y859790D02*
D03*
X1125220Y822960D02*
D03*
X1163320Y815340D02*
D03*
X1290320Y760730D02*
D03*
X1299210Y808980D02*
D03*
X1271270Y805180D02*
D03*
Y812800D02*
D03*
X1350391Y821690D02*
D03*
X1339850Y784860D02*
D03*
X1316990Y875030D02*
D03*
X1314450Y916940D02*
D03*
X1287780Y897890D02*
D03*
X1374140Y905510D02*
D03*
X1442475Y917269D02*
D03*
X1446530Y910590D02*
D03*
X1499870Y801370D02*
D03*
X1496060Y815340D02*
D03*
X1461770Y732790D02*
D03*
X1436370Y693420D02*
D03*
X1417320Y678180D02*
D03*
X1369060Y675640D02*
D03*
X1206500Y765810D02*
D03*
X1243330Y720090D02*
D03*
X1332738Y834865D02*
D03*
X1380236Y832485D02*
D03*
X1342898Y713867D02*
D03*
X1343990Y795864D02*
D03*
X1291590Y844042D02*
D03*
X1373886Y843026D02*
D03*
X1359934Y878278D02*
D03*
X1357376Y817499D02*
D03*
X1337818Y795782D02*
D03*
X1276604Y836676D02*
D03*
X1351026Y868426D02*
D03*
D42*
X1133920Y806670D02*
D03*
Y770670D02*
D03*
X1148420Y806670D02*
D03*
Y770670D02*
D03*
D43*
X1243860Y834390D02*
D03*
X1214860D02*
D03*
D44*
X1352537Y676152D02*
D03*
X1357463Y669848D02*
D03*
D45*
X1301463Y676152D02*
D03*
X1296537Y669848D02*
D03*
D46*
X1450291Y814498D02*
D03*
X1457708Y811502D02*
D03*
D47*
X1257828Y715828D02*
D03*
X1252172Y710172D02*
D03*
X1275828Y910828D02*
D03*
X1270172Y905172D02*
D03*
D48*
X1221152Y760463D02*
D03*
X1214848Y755537D02*
D03*
D49*
X1204046Y815209D02*
D03*
X1196795Y811828D02*
D03*
D50*
X1211277Y898706D02*
D03*
X1204724Y903294D02*
D03*
D51*
X1220651Y909015D02*
D03*
X1221349Y916985D02*
D03*
D52*
X1398171Y715828D02*
D03*
X1403828Y710172D02*
D03*
X1386828Y905172D02*
D03*
X1381172Y910828D02*
D03*
D53*
X1434848Y760463D02*
D03*
X1441152Y755537D02*
D03*
D54*
X1444724Y898706D02*
D03*
X1451277Y903294D02*
D03*
D55*
X1435348Y909015D02*
D03*
X1434651Y916985D02*
D03*
D56*
X1516380Y778500D02*
D03*
Y799500D02*
D03*
D57*
X1132737Y838000D02*
D03*
X1147263D02*
D03*
Y739000D02*
D03*
X1132737D02*
D03*
M02*
