G04*
G04 #@! TF.GenerationSoftware,Altium Limited,Altium Designer,25.0.2 (28)*
G04*
G04 Layer_Color=8388736*
%FSLAX44Y44*%
%MOMM*%
G71*
G04*
G04 #@! TF.SameCoordinates,16F35CEF-FA67-4110-AEDA-BA59390F761F*
G04*
G04*
G04 #@! TF.FilePolarity,Negative*
G04*
G01*
G75*
%ADD17P,2.1213X4X85.0*%
%ADD18P,2.1213X4X180.0*%
%ADD19P,2.1213X4X185.0*%
%ADD20P,2.1213X4X160.0*%
%ADD21P,2.1213X4X173.0*%
%ADD22P,2.1213X4X100.0*%
%ADD23P,2.1213X4X170.0*%
%ADD24P,2.1213X4X220.0*%
%ADD25R,1.5000X1.5000*%
%ADD26P,2.1213X4X110.0*%
%ADD27P,2.1213X4X90.0*%
%ADD28P,2.1213X4X97.0*%
%ADD29P,2.1213X4X50.0*%
%ADD30R,0.6532X0.6532*%
G04:AMPARAMS|DCode=31|XSize=0.7532mm|YSize=1.5032mm|CornerRadius=0mm|HoleSize=0mm|Usage=FLASHONLY|Rotation=315.000|XOffset=0mm|YOffset=0mm|HoleType=Round|Shape=Round|*
%AMOVALD31*
21,1,0.7500,0.7532,0.0000,0.0000,45.0*
1,1,0.7532,-0.2652,-0.2652*
1,1,0.7532,0.2652,0.2652*
%
%ADD31OVALD31*%

G04:AMPARAMS|DCode=32|XSize=0.7532mm|YSize=1.5032mm|CornerRadius=0mm|HoleSize=0mm|Usage=FLASHONLY|Rotation=45.000|XOffset=0mm|YOffset=0mm|HoleType=Round|Shape=Round|*
%AMOVALD32*
21,1,0.7500,0.7532,0.0000,0.0000,135.0*
1,1,0.7532,0.2652,-0.2652*
1,1,0.7532,-0.2652,0.2652*
%
%ADD32OVALD32*%

%ADD33C,1.0532*%
%ADD34C,5.2032*%
%ADD35C,2.1450*%
%ADD36R,2.1450X2.1450*%
%ADD37C,0.6032*%
D17*
X1369406Y656249D02*
D03*
X1342594Y633751D02*
D03*
D18*
X1241626Y699374D02*
D03*
X1266374Y674625D02*
D03*
X1286626Y922375D02*
D03*
X1311374Y897626D02*
D03*
D19*
X1286594Y656249D02*
D03*
X1313406Y633751D02*
D03*
D20*
X1174604Y801860D02*
D03*
X1189396Y770140D02*
D03*
D21*
X1203226Y746790D02*
D03*
X1224774Y719210D02*
D03*
D22*
X1197038Y917335D02*
D03*
X1176962Y888665D02*
D03*
D23*
X1458962Y917335D02*
D03*
X1479037Y888665D02*
D03*
D24*
X1222567Y931525D02*
D03*
X1257434Y928475D02*
D03*
D25*
X1169000Y863500D02*
D03*
Y828500D02*
D03*
X1487000Y863500D02*
D03*
Y828500D02*
D03*
D26*
X1481396Y801860D02*
D03*
X1466604Y770140D02*
D03*
D27*
X1414374Y699374D02*
D03*
X1389626Y674625D02*
D03*
X1369375Y922375D02*
D03*
X1344626Y897626D02*
D03*
D28*
X1452774Y746790D02*
D03*
X1431226Y719210D02*
D03*
D29*
X1433433Y931525D02*
D03*
X1398567Y928475D02*
D03*
D30*
X1450580Y863600D02*
D03*
X1458580D02*
D03*
D31*
X1337966Y858134D02*
D03*
X1343623Y852477D02*
D03*
X1349279Y846820D02*
D03*
X1354937Y841163D02*
D03*
X1360593Y835507D02*
D03*
X1366250Y829849D02*
D03*
X1371907Y824193D02*
D03*
X1377564Y818536D02*
D03*
X1318874Y759846D02*
D03*
X1313217Y765503D02*
D03*
X1307560Y771160D02*
D03*
X1301903Y776817D02*
D03*
X1296247Y782473D02*
D03*
X1290590Y788130D02*
D03*
X1284933Y793787D02*
D03*
X1279276Y799444D02*
D03*
D32*
X1377564D02*
D03*
X1371907Y793787D02*
D03*
X1366250Y788130D02*
D03*
X1360593Y782473D02*
D03*
X1354937Y776817D02*
D03*
X1349279Y771160D02*
D03*
X1343623Y765503D02*
D03*
X1337966Y759846D02*
D03*
X1279276Y818536D02*
D03*
X1284933Y824193D02*
D03*
X1290590Y829849D02*
D03*
X1296247Y835507D02*
D03*
X1301903Y841163D02*
D03*
X1307560Y846820D02*
D03*
X1313217Y852477D02*
D03*
X1318874Y858134D02*
D03*
D33*
X1245870Y603000D02*
D03*
X1375410Y590000D02*
D03*
X1315000Y584000D02*
D03*
X1280160Y590000D02*
D03*
X1341840Y584000D02*
D03*
X1409700Y603000D02*
D03*
D34*
X1328420Y975360D02*
D03*
D35*
Y924670D02*
D03*
D36*
Y719770D02*
D03*
D37*
X1289050Y674370D02*
D03*
X1294130Y692150D02*
D03*
X1277366Y733425D02*
D03*
X1254760Y661670D02*
D03*
X1315720Y695960D02*
D03*
X1328420Y617220D02*
D03*
X1408430Y720090D02*
D03*
X1202690Y930910D02*
D03*
X1203960Y891540D02*
D03*
X1146810Y859790D02*
D03*
X1125220Y822960D02*
D03*
X1163320Y815340D02*
D03*
X1290320Y760730D02*
D03*
X1299210Y808980D02*
D03*
X1271270Y805180D02*
D03*
Y812800D02*
D03*
X1350391Y821690D02*
D03*
X1339850Y784860D02*
D03*
X1316990Y875030D02*
D03*
X1314450Y916940D02*
D03*
X1287780Y897890D02*
D03*
X1374140Y905510D02*
D03*
X1442475Y917269D02*
D03*
X1446530Y910590D02*
D03*
X1499870Y801370D02*
D03*
X1496060Y815340D02*
D03*
X1461770Y732790D02*
D03*
X1436370Y693420D02*
D03*
X1417320Y678180D02*
D03*
X1369060Y675640D02*
D03*
X1206500Y765810D02*
D03*
X1243330Y720090D02*
D03*
X1332738Y834865D02*
D03*
X1380236Y832485D02*
D03*
X1342898Y713867D02*
D03*
X1343990Y795864D02*
D03*
X1291590Y844042D02*
D03*
X1373886Y843026D02*
D03*
X1359934Y878278D02*
D03*
X1357376Y817499D02*
D03*
X1337818Y795782D02*
D03*
X1276604Y836676D02*
D03*
X1351026Y868426D02*
D03*
M02*
