M48
;Layer_Color=9474304
;FILE_FORMAT=4:4
METRIC,LZ
;TYPE=PLATED
T01F00S00C0.3000
T02F00S00C0.5000
T03F00S00C1.3950
T04F00S00C4.8000
%
T01
X0125476Y0066167
X0128905Y0067437
X0129413Y0069215
X0131572Y0069596
X01342898Y00713867
X0136906Y0067564
X0141732Y0067818
X0143637Y0069342
X0140843Y0072009
X0146177Y0073279
X0133985Y0078486
X0129032Y0076073
X01277366Y00733425
X0124333Y0072009
X012065Y0076581
X0132842Y0061722
X0116332Y0081534
X0112522Y0082296
X0114681Y0085979
X0120396Y0089154
X0120269Y0093091
X0128778Y0089789
X0131445Y0091694
X0131699Y0087503
X01351026Y00868426
X01359934Y00878278
X0137414Y0090551
X01373886Y00843026
X01380236Y00832485
X01357376Y00817499
X01350391Y0082169
X01332738Y00834865
X01337818Y00795782
X0134399Y00795864
X0129921Y0080898
X0127127Y0080518
Y008128
X01276604Y00836676
X0129159Y00844042
X0144653Y0091059
X01442475Y00917269
X0149606Y0081534
X0149987Y0080137
T02
X0124587Y00603
X0128016Y0059
X01315Y00584
X0134184
X0137541Y0059
X014097Y00603
T03
X0132842Y0071977
Y0092467
T04
X0132842Y0097536
M30
